<svg width="460" height="485" viewBox="0 0 460 485" fill="none" xmlns="http://www.w3.org/2000/svg">
<circle cx="160.5" cy="160.5" r="160.5" fill="#E1FFFE"/>
<circle cx="396" cy="421" r="64" fill="#EDF8FF"/>
<g clip-path="url(#clip0)">
<path d="M382.715 69.4146H130.634C127.199 69.4146 124.415 72.1989 124.415 75.6337V431.366C124.415 434.801 127.199 437.585 130.634 437.585H382.715C386.149 437.585 388.934 434.801 388.934 431.366V75.6337C388.934 72.1989 386.149 69.4146 382.715 69.4146Z" fill="white" stroke="#B5C4CF"/>
<path d="M372.764 134.093H140.584C137.15 134.093 134.365 136.878 134.365 140.312V160.213C134.365 163.648 137.15 166.433 140.584 166.433H372.764C376.199 166.433 378.983 163.648 378.983 160.213V140.312C378.983 136.878 376.199 134.093 372.764 134.093Z" fill="#EDF8FF" stroke="#4FA3DD"/>
<path d="M145.703 154.409H144.877V147.306H148.837V148.039H145.703V150.639H148.648V151.372H145.703V154.409ZM150.654 149.084V152.538C150.654 152.973 150.753 153.296 150.951 153.51C151.148 153.724 151.458 153.831 151.879 153.831C152.436 153.831 152.842 153.678 153.098 153.374C153.357 153.07 153.487 152.572 153.487 151.882V149.084H154.294V154.409H153.628L153.511 153.695H153.468C153.302 153.957 153.072 154.158 152.778 154.297C152.486 154.436 152.153 154.506 151.777 154.506C151.129 154.506 150.643 154.353 150.319 154.045C149.998 153.736 149.838 153.245 149.838 152.567V149.084H150.654ZM156.815 154.409H156.009V146.849H156.815V154.409ZM159.332 154.409H158.525V146.849H159.332V154.409ZM167.757 152.519C167.757 153.144 167.53 153.631 167.077 153.981C166.623 154.331 166.008 154.506 165.23 154.506C164.388 154.506 163.74 154.397 163.287 154.181V153.384C163.579 153.507 163.896 153.604 164.239 153.675C164.583 153.746 164.923 153.782 165.26 153.782C165.81 153.782 166.225 153.678 166.503 153.471C166.782 153.261 166.921 152.969 166.921 152.596C166.921 152.351 166.871 152.149 166.771 151.994C166.673 151.836 166.508 151.69 166.275 151.557C166.045 151.424 165.694 151.274 165.221 151.105C164.56 150.869 164.087 150.588 163.802 150.265C163.52 149.941 163.379 149.518 163.379 148.996C163.379 148.449 163.585 148.013 163.996 147.689C164.408 147.366 164.952 147.204 165.629 147.204C166.335 147.204 166.984 147.333 167.577 147.592L167.32 148.311C166.733 148.065 166.163 147.942 165.609 147.942C165.172 147.942 164.83 148.036 164.584 148.224C164.338 148.412 164.215 148.672 164.215 149.006C164.215 149.252 164.26 149.455 164.351 149.613C164.442 149.769 164.594 149.913 164.808 150.046C165.025 150.175 165.355 150.32 165.799 150.478C166.544 150.744 167.056 151.029 167.334 151.333C167.616 151.638 167.757 152.033 167.757 152.519ZM171.216 154.506C170.445 154.506 169.848 154.27 169.423 153.797C169.002 153.321 168.792 152.649 168.792 151.78C168.792 150.89 169.006 150.201 169.433 149.715C169.864 149.23 170.476 148.987 171.27 148.987C171.526 148.987 171.782 149.014 172.037 149.069C172.293 149.124 172.494 149.189 172.64 149.264L172.392 149.949C172.214 149.878 172.02 149.819 171.809 149.774C171.599 149.725 171.412 149.701 171.25 149.701C170.168 149.701 169.628 150.391 169.628 151.771C169.628 152.425 169.759 152.927 170.021 153.277C170.287 153.627 170.679 153.802 171.197 153.802C171.641 153.802 172.096 153.706 172.562 153.515V154.229C172.206 154.414 171.757 154.506 171.216 154.506ZM176.26 148.987C176.496 148.987 176.708 149.006 176.896 149.045L176.784 149.793C176.564 149.745 176.37 149.72 176.201 149.72C175.771 149.72 175.401 149.895 175.094 150.245C174.789 150.595 174.637 151.031 174.637 151.552V154.409H173.83V149.084H174.496L174.588 150.07H174.627C174.825 149.724 175.063 149.456 175.341 149.269C175.62 149.081 175.926 148.987 176.26 148.987ZM180.142 154.506C179.355 154.506 178.733 154.266 178.276 153.787C177.823 153.308 177.596 152.642 177.596 151.79C177.596 150.932 177.806 150.25 178.227 149.745C178.652 149.239 179.22 148.987 179.933 148.987C180.6 148.987 181.128 149.207 181.517 149.647C181.905 150.085 182.1 150.663 182.1 151.382V151.892H178.431C178.448 152.518 178.605 152.992 178.903 153.316C179.204 153.639 179.627 153.802 180.171 153.802C180.744 153.802 181.311 153.682 181.871 153.442V154.161C181.586 154.285 181.316 154.372 181.06 154.424C180.807 154.479 180.501 154.506 180.142 154.506ZM179.923 149.662C179.496 149.662 179.154 149.801 178.898 150.08C178.645 150.358 178.496 150.744 178.451 151.236H181.235C181.235 150.728 181.122 150.339 180.895 150.07C180.668 149.798 180.344 149.662 179.923 149.662ZM185.729 154.506C184.942 154.506 184.32 154.266 183.863 153.787C183.41 153.308 183.183 152.642 183.183 151.79C183.183 150.932 183.394 150.25 183.815 149.745C184.239 149.239 184.808 148.987 185.52 148.987C186.188 148.987 186.715 149.207 187.104 149.647C187.493 150.085 187.687 150.663 187.687 151.382V151.892H184.019C184.035 152.518 184.192 152.992 184.49 153.316C184.791 153.639 185.214 153.802 185.758 153.802C186.332 153.802 186.898 153.682 187.459 153.442V154.161C187.174 154.285 186.903 154.372 186.647 154.424C186.395 154.479 186.089 154.506 185.729 154.506ZM185.511 149.662C185.083 149.662 184.741 149.801 184.485 150.08C184.233 150.358 184.084 150.744 184.038 151.236H186.822C186.822 150.728 186.709 150.339 186.482 150.07C186.256 149.798 185.932 149.662 185.511 149.662ZM192.711 154.409V150.964C192.711 150.53 192.612 150.206 192.415 149.992C192.217 149.779 191.908 149.672 191.487 149.672C190.93 149.672 190.521 149.822 190.262 150.124C190.003 150.425 189.874 150.922 189.874 151.615V154.409H189.067V149.084H189.723L189.854 149.813H189.893C190.058 149.55 190.29 149.348 190.588 149.205C190.886 149.06 191.218 148.987 191.584 148.987C192.225 148.987 192.708 149.142 193.032 149.453C193.356 149.761 193.518 150.255 193.518 150.935V154.409H192.711Z" fill="#153C55"/>
<path d="M310.862 152.48C310.862 153.112 310.633 153.607 310.176 153.967C309.72 154.326 309.09 154.506 308.286 154.506C307.483 154.506 306.825 154.382 306.313 154.132V153.034C306.638 153.186 306.981 153.306 307.343 153.393C307.71 153.481 308.05 153.525 308.364 153.525C308.824 153.525 309.163 153.437 309.38 153.262C309.6 153.087 309.71 152.853 309.71 152.558C309.71 152.292 309.61 152.067 309.409 151.882C309.208 151.698 308.794 151.479 308.165 151.227C307.517 150.964 307.061 150.665 306.794 150.328C306.529 149.991 306.396 149.586 306.396 149.113C306.396 148.52 306.607 148.054 307.028 147.714C307.449 147.374 308.014 147.204 308.724 147.204C309.404 147.204 310.081 147.353 310.755 147.651L310.385 148.598C309.754 148.332 309.19 148.2 308.694 148.2C308.319 148.2 308.034 148.282 307.839 148.447C307.645 148.609 307.548 148.825 307.548 149.094C307.548 149.278 307.586 149.437 307.664 149.57C307.742 149.699 307.87 149.822 308.048 149.939C308.226 150.056 308.547 150.209 309.01 150.401C309.532 150.618 309.914 150.82 310.157 151.008C310.4 151.196 310.578 151.408 310.692 151.644C310.804 151.881 310.862 152.159 310.862 152.48ZM314.461 154.506C313.626 154.506 312.972 154.263 312.499 153.777C312.029 153.288 311.795 152.616 311.795 151.761C311.795 150.883 312.013 150.193 312.45 149.691C312.887 149.189 313.489 148.938 314.253 148.938C314.962 148.938 315.523 149.154 315.934 149.584C316.345 150.015 316.551 150.608 316.551 151.363V151.979H312.97C312.986 152.501 313.127 152.903 313.392 153.184C313.659 153.463 314.033 153.602 314.515 153.602C314.833 153.602 315.127 153.573 315.399 153.515C315.674 153.454 315.97 153.353 316.284 153.214V154.142C316.005 154.275 315.723 154.368 315.438 154.424C315.153 154.479 314.828 154.506 314.461 154.506ZM314.253 149.803C313.89 149.803 313.598 149.918 313.378 150.148C313.161 150.378 313.032 150.713 312.989 151.154H315.428C315.422 150.71 315.315 150.375 315.108 150.148C314.901 149.918 314.616 149.803 314.253 149.803ZM318.99 154.409H317.848V146.849H318.99V154.409ZM322.974 154.506C322.138 154.506 321.484 154.263 321.011 153.777C320.541 153.288 320.306 152.616 320.306 151.761C320.306 150.883 320.525 150.193 320.962 149.691C321.4 149.189 322.001 148.938 322.765 148.938C323.475 148.938 324.035 149.154 324.446 149.584C324.858 150.015 325.064 150.608 325.064 151.363V151.979H321.482C321.499 152.501 321.64 152.903 321.905 153.184C322.171 153.463 322.545 153.602 323.028 153.602C323.345 153.602 323.64 153.573 323.912 153.515C324.187 153.454 324.482 153.353 324.796 153.214V154.142C324.517 154.275 324.236 154.368 323.951 154.424C323.666 154.479 323.34 154.506 322.974 154.506ZM322.765 149.803C322.403 149.803 322.111 149.918 321.89 150.148C321.674 150.378 321.544 150.713 321.502 151.154H323.941C323.934 150.71 323.827 150.375 323.62 150.148C323.413 149.918 323.128 149.803 322.765 149.803ZM328.527 154.506C327.715 154.506 327.096 154.27 326.671 153.797C326.25 153.321 326.04 152.639 326.04 151.751C326.04 150.848 326.26 150.153 326.701 149.667C327.144 149.181 327.784 148.938 328.62 148.938C329.187 148.938 329.696 149.043 330.15 149.254L329.805 150.172C329.322 149.984 328.924 149.89 328.61 149.89C327.681 149.89 327.215 150.507 327.215 151.742C327.215 152.344 327.331 152.798 327.56 153.102C327.794 153.403 328.134 153.554 328.581 153.554C329.089 153.554 329.57 153.427 330.024 153.175V154.171C329.82 154.29 329.601 154.377 329.368 154.428C329.138 154.48 328.858 154.506 328.527 154.506ZM333.289 153.583C333.567 153.583 333.846 153.539 334.124 153.452V154.312C333.998 154.367 333.835 154.412 333.634 154.448C333.436 154.487 333.231 154.506 333.017 154.506C331.935 154.506 331.394 153.936 331.394 152.796V149.9H330.661V149.395L331.448 148.977L331.837 147.84H332.541V149.035H334.071V149.9H332.541V152.776C332.541 153.052 332.609 153.256 332.745 153.389C332.884 153.518 333.066 153.583 333.289 153.583ZM342.005 152.48C342.005 153.112 341.777 153.607 341.32 153.967C340.863 154.326 340.234 154.506 339.431 154.506C338.627 154.506 337.97 154.382 337.458 154.132V153.034C337.781 153.186 338.125 153.306 338.488 153.393C338.853 153.481 339.194 153.525 339.509 153.525C339.968 153.525 340.306 153.437 340.523 153.262C340.744 153.087 340.854 152.853 340.854 152.558C340.854 152.292 340.753 152.067 340.553 151.882C340.352 151.698 339.937 151.479 339.309 151.227C338.661 150.964 338.204 150.665 337.939 150.328C337.674 149.991 337.54 149.586 337.54 149.113C337.54 148.52 337.751 148.054 338.172 147.714C338.593 147.374 339.159 147.204 339.868 147.204C340.548 147.204 341.225 147.353 341.898 147.651L341.529 148.598C340.897 148.332 340.334 148.2 339.839 148.2C339.463 148.2 339.178 148.282 338.984 148.447C338.789 148.609 338.692 148.825 338.692 149.094C338.692 149.278 338.731 149.437 338.809 149.57C338.887 149.699 339.014 149.822 339.193 149.939C339.371 150.056 339.691 150.209 340.155 150.401C340.676 150.618 341.058 150.82 341.301 151.008C341.544 151.196 341.722 151.408 341.835 151.644C341.949 151.881 342.005 152.159 342.005 152.48ZM345.426 154.506C344.613 154.506 343.995 154.27 343.57 153.797C343.149 153.321 342.938 152.639 342.938 151.751C342.938 150.848 343.159 150.153 343.599 149.667C344.043 149.181 344.683 148.938 345.519 148.938C346.085 148.938 346.595 149.043 347.049 149.254L346.704 150.172C346.221 149.984 345.823 149.89 345.509 149.89C344.579 149.89 344.114 150.507 344.114 151.742C344.114 152.344 344.229 152.798 344.459 153.102C344.692 153.403 345.033 153.554 345.48 153.554C345.988 153.554 346.469 153.427 346.923 153.175V154.171C346.719 154.29 346.5 154.377 346.267 154.428C346.037 154.48 345.757 154.506 345.426 154.506ZM350.911 148.938C351.142 148.938 351.331 148.954 351.48 148.987L351.368 150.051C351.206 150.012 351.038 149.992 350.863 149.992C350.406 149.992 350.035 150.141 349.75 150.439C349.468 150.737 349.327 151.125 349.327 151.601V154.409H348.185V149.035H349.08L349.23 149.983H349.288C349.467 149.662 349.699 149.408 349.983 149.22C350.272 149.032 350.581 148.938 350.911 148.938ZM354.827 154.506C353.992 154.506 353.337 154.263 352.865 153.777C352.395 153.288 352.16 152.616 352.16 151.761C352.16 150.883 352.379 150.193 352.816 149.691C353.254 149.189 353.854 148.938 354.618 148.938C355.328 148.938 355.888 149.154 356.3 149.584C356.711 150.015 356.917 150.608 356.917 151.363V151.979H353.336C353.352 152.501 353.493 152.903 353.759 153.184C354.024 153.463 354.399 153.602 354.881 153.602C355.198 153.602 355.493 153.573 355.765 153.515C356.041 153.454 356.336 153.353 356.649 153.214V154.142C356.371 154.275 356.09 154.368 355.804 154.424C355.519 154.479 355.194 154.506 354.827 154.506ZM354.618 149.803C354.256 149.803 353.964 149.918 353.744 150.148C353.527 150.378 353.398 150.713 353.356 151.154H355.794C355.788 150.71 355.681 150.375 355.473 150.148C355.266 149.918 354.982 149.803 354.618 149.803ZM360.561 154.506C359.725 154.506 359.071 154.263 358.598 153.777C358.129 153.288 357.893 152.616 357.893 151.761C357.893 150.883 358.112 150.193 358.549 149.691C358.987 149.189 359.587 148.938 360.352 148.938C361.061 148.938 361.621 149.154 362.033 149.584C362.445 150.015 362.65 150.608 362.65 151.363V151.979H359.069C359.085 152.501 359.226 152.903 359.492 153.184C359.757 153.463 360.132 153.602 360.615 153.602C360.931 153.602 361.226 153.573 361.498 153.515C361.774 153.454 362.069 153.353 362.382 153.214V154.142C362.105 154.275 361.823 154.368 361.537 154.424C361.252 154.479 360.927 154.506 360.561 154.506ZM360.352 149.803C359.989 149.803 359.697 149.918 359.478 150.148C359.26 150.378 359.131 150.713 359.089 151.154H361.527C361.521 150.71 361.414 150.375 361.207 150.148C360.999 149.918 360.715 149.803 360.352 149.803ZM368.674 154.409H367.529V151.105C367.529 150.69 367.444 150.381 367.276 150.177C367.111 149.973 366.846 149.871 366.484 149.871C366.001 149.871 365.648 150.013 365.424 150.299C365.201 150.584 365.089 151.061 365.089 151.732V154.409H363.947V149.035H364.841L365.002 149.74H365.06C365.222 149.484 365.452 149.286 365.75 149.147C366.048 149.008 366.378 148.938 366.741 148.938C368.03 148.938 368.674 149.594 368.674 150.906V154.409Z" fill="#153C55"/>
<path d="M147.919 187.744C147.138 187.744 146.521 188.005 146.068 188.527C145.618 189.045 145.393 189.756 145.393 190.66C145.393 191.589 145.61 192.308 146.044 192.817C146.481 193.322 147.103 193.574 147.909 193.574C148.405 193.574 148.97 193.486 149.605 193.307V194.031C149.113 194.216 148.505 194.308 147.783 194.308C146.737 194.308 145.929 193.991 145.359 193.356C144.792 192.721 144.508 191.819 144.508 190.65C144.508 189.918 144.644 189.277 144.916 188.726C145.192 188.175 145.587 187.751 146.102 187.453C146.62 187.155 147.229 187.006 147.929 187.006C148.674 187.006 149.325 187.142 149.882 187.414L149.532 188.123C148.995 187.871 148.457 187.744 147.919 187.744ZM151.791 188.886V192.341C151.791 192.775 151.89 193.098 152.088 193.312C152.285 193.526 152.595 193.633 153.016 193.633C153.573 193.633 153.979 193.481 154.235 193.176C154.495 192.872 154.624 192.375 154.624 191.685V188.886H155.431V194.211H154.765L154.648 193.497H154.605C154.439 193.759 154.209 193.96 153.915 194.099C153.623 194.239 153.29 194.308 152.914 194.308C152.266 194.308 151.78 194.155 151.456 193.847C151.136 193.539 150.975 193.047 150.975 192.37V188.886H151.791ZM160.581 192.758C160.581 193.254 160.396 193.637 160.027 193.905C159.658 194.174 159.139 194.308 158.472 194.308C157.766 194.308 157.215 194.196 156.82 193.973V193.225C157.076 193.355 157.35 193.457 157.641 193.531C157.936 193.606 158.22 193.642 158.492 193.642C158.913 193.642 159.237 193.576 159.463 193.443C159.69 193.307 159.803 193.102 159.803 192.826C159.803 192.619 159.713 192.443 159.531 192.297C159.353 192.148 159.003 191.973 158.482 191.773C157.986 191.588 157.633 191.428 157.423 191.292C157.215 191.152 157.06 190.995 156.956 190.82C156.856 190.645 156.806 190.436 156.806 190.193C156.806 189.759 156.982 189.418 157.335 189.168C157.688 188.915 158.172 188.789 158.788 188.789C159.361 188.789 159.922 188.906 160.469 189.139L160.182 189.795C159.648 189.574 159.164 189.464 158.73 189.464C158.347 189.464 158.059 189.525 157.865 189.644C157.67 189.764 157.573 189.929 157.573 190.14C157.573 190.282 157.609 190.404 157.68 190.504C157.755 190.604 157.873 190.7 158.035 190.791C158.197 190.881 158.508 191.013 158.968 191.185C159.599 191.414 160.025 191.646 160.246 191.88C160.469 192.113 160.581 192.405 160.581 192.758ZM163.617 193.642C163.76 193.642 163.898 193.633 164.03 193.613C164.163 193.591 164.269 193.569 164.346 193.545V194.162C164.259 194.205 164.129 194.239 163.958 194.264C163.789 194.294 163.637 194.308 163.501 194.308C162.471 194.308 161.956 193.766 161.956 192.681V189.513H161.193V189.124L161.956 188.789L162.296 187.652H162.762V188.886H164.307V189.513H162.762V192.647C162.762 192.967 162.838 193.214 162.991 193.385C163.143 193.557 163.352 193.642 163.617 193.642ZM170.012 191.544C170.012 192.412 169.793 193.09 169.356 193.579C168.918 194.065 168.314 194.308 167.543 194.308C167.067 194.308 166.644 194.196 166.275 193.973C165.906 193.749 165.621 193.429 165.42 193.011C165.219 192.593 165.119 192.104 165.119 191.544C165.119 190.675 165.336 190.001 165.77 189.518C166.204 189.032 166.806 188.789 167.577 188.789C168.322 188.789 168.913 189.037 169.351 189.532C169.791 190.028 170.012 190.699 170.012 191.544ZM165.954 191.544C165.954 192.224 166.091 192.743 166.363 193.098C166.635 193.455 167.035 193.633 167.563 193.633C168.091 193.633 168.491 193.457 168.763 193.103C169.038 192.747 169.176 192.227 169.176 191.544C169.176 190.867 169.038 190.354 168.763 190.004C168.491 189.651 168.087 189.474 167.553 189.474C167.025 189.474 166.627 189.647 166.358 189.994C166.089 190.34 165.954 190.857 165.954 191.544ZM178.218 194.211V190.747C178.218 190.323 178.127 190.005 177.946 189.795C177.764 189.581 177.482 189.474 177.1 189.474C176.598 189.474 176.227 189.618 175.988 189.907C175.748 190.195 175.628 190.638 175.628 191.238V194.211H174.822V190.747C174.822 190.323 174.731 190.005 174.549 189.795C174.368 189.581 174.085 189.474 173.699 189.474C173.194 189.474 172.823 189.627 172.587 189.931C172.353 190.232 172.237 190.728 172.237 191.418V194.211H171.43V188.886H172.086L172.217 189.615H172.256C172.408 189.356 172.622 189.153 172.898 189.008C173.176 188.862 173.487 188.789 173.83 188.789C174.663 188.789 175.207 189.09 175.463 189.693H175.502C175.661 189.414 175.89 189.194 176.192 189.032C176.493 188.87 176.836 188.789 177.222 188.789C177.824 188.789 178.274 188.944 178.572 189.255C178.874 189.564 179.024 190.057 179.024 190.738V194.211H178.218Z" fill="#153C55"/>
<path d="M320.957 192.282C320.957 192.914 320.729 193.409 320.272 193.769C319.815 194.128 319.186 194.308 318.382 194.308C317.579 194.308 316.921 194.184 316.41 193.934V192.836C316.734 192.988 317.077 193.108 317.44 193.195C317.806 193.283 318.146 193.327 318.46 193.327C318.92 193.327 319.259 193.239 319.475 193.064C319.696 192.889 319.806 192.655 319.806 192.36C319.806 192.094 319.706 191.869 319.504 191.685C319.304 191.5 318.889 191.282 318.26 191.029C317.613 190.767 317.156 190.466 316.891 190.13C316.625 189.793 316.493 189.388 316.493 188.915C316.493 188.322 316.703 187.856 317.124 187.516C317.545 187.176 318.11 187.006 318.819 187.006C319.5 187.006 320.177 187.155 320.851 187.453L320.481 188.4C319.85 188.135 319.286 188.002 318.79 188.002C318.415 188.002 318.129 188.084 317.935 188.25C317.741 188.412 317.644 188.627 317.644 188.896C317.644 189.08 317.683 189.239 317.76 189.372C317.838 189.501 317.966 189.625 318.144 189.741C318.323 189.858 318.643 190.012 319.106 190.203C319.628 190.42 320.01 190.622 320.253 190.81C320.496 190.998 320.674 191.21 320.787 191.447C320.901 191.683 320.957 191.962 320.957 192.282ZM324.558 194.308C323.722 194.308 323.067 194.065 322.595 193.579C322.125 193.09 321.89 192.418 321.89 191.564C321.89 190.685 322.109 189.995 322.546 189.494C322.984 188.991 323.584 188.74 324.349 188.74C325.058 188.74 325.619 188.956 326.03 189.387C326.441 189.817 326.647 190.41 326.647 191.165V191.782H323.066C323.082 192.303 323.223 192.705 323.489 192.986C323.754 193.265 324.129 193.404 324.611 193.404C324.928 193.404 325.223 193.375 325.495 193.317C325.771 193.256 326.066 193.156 326.379 193.016V193.944C326.102 194.077 325.82 194.171 325.534 194.226C325.249 194.281 324.924 194.308 324.558 194.308ZM324.349 189.605C323.986 189.605 323.694 189.72 323.475 189.95C323.257 190.18 323.128 190.515 323.086 190.956H325.524C325.518 190.512 325.412 190.177 325.204 189.95C324.997 189.72 324.712 189.605 324.349 189.605ZM329.086 194.211H327.944V186.651H329.086V194.211ZM333.07 194.308C332.234 194.308 331.58 194.065 331.107 193.579C330.637 193.09 330.403 192.418 330.403 191.564C330.403 190.685 330.622 189.995 331.059 189.494C331.496 188.991 332.097 188.74 332.861 188.74C333.57 188.74 334.131 188.956 334.542 189.387C334.953 189.817 335.159 190.41 335.159 191.165V191.782H331.578C331.595 192.303 331.735 192.705 332.001 192.986C332.267 193.265 332.641 193.404 333.123 193.404C333.441 193.404 333.736 193.375 334.008 193.317C334.283 193.256 334.578 193.156 334.892 193.016V193.944C334.613 194.077 334.331 194.171 334.047 194.226C333.762 194.281 333.436 194.308 333.07 194.308ZM332.861 189.605C332.498 189.605 332.207 189.72 331.986 189.95C331.769 190.18 331.64 190.515 331.598 190.956H334.037C334.03 190.512 333.923 190.177 333.716 189.95C333.509 189.72 333.224 189.605 332.861 189.605ZM338.623 194.308C337.811 194.308 337.192 194.072 336.768 193.599C336.346 193.123 336.136 192.441 336.136 191.554C336.136 190.65 336.356 189.955 336.797 189.469C337.24 188.983 337.88 188.74 338.715 188.74C339.283 188.74 339.793 188.845 340.246 189.056L339.901 189.975C339.419 189.787 339.021 189.693 338.706 189.693C337.777 189.693 337.312 190.31 337.312 191.544C337.312 192.146 337.427 192.6 337.657 192.904C337.89 193.205 338.23 193.356 338.677 193.356C339.186 193.356 339.667 193.229 340.12 192.977V193.973C339.916 194.093 339.697 194.179 339.464 194.23C339.234 194.282 338.954 194.308 338.623 194.308ZM343.385 193.385C343.663 193.385 343.942 193.341 344.221 193.254V194.114C344.095 194.169 343.931 194.215 343.73 194.25C343.532 194.289 343.327 194.308 343.113 194.308C342.032 194.308 341.49 193.739 341.49 192.598V189.702H340.756V189.197L341.544 188.779L341.932 187.642H342.637V188.838H344.168V189.702H342.637V192.578C342.637 192.854 342.705 193.058 342.841 193.191C342.98 193.321 343.162 193.385 343.385 193.385ZM352.412 194.211L351.703 192.238H348.987L348.292 194.211H347.068L349.726 187.078H350.989L353.646 194.211H352.412ZM351.397 191.238L350.732 189.304C350.683 189.175 350.615 188.971 350.528 188.692C350.443 188.413 350.385 188.209 350.353 188.079C350.265 188.478 350.137 188.913 349.969 189.387L349.327 191.238H351.397ZM357.189 188.74C357.418 188.74 357.608 188.757 357.757 188.789L357.646 189.853C357.483 189.814 357.315 189.795 357.14 189.795C356.683 189.795 356.312 189.944 356.027 190.242C355.746 190.539 355.605 190.927 355.605 191.403V194.211H354.463V188.838H355.357L355.507 189.785H355.566C355.744 189.464 355.976 189.21 356.261 189.022C356.549 188.835 356.858 188.74 357.189 188.74ZM361.104 194.308C360.269 194.308 359.615 194.065 359.141 193.579C358.672 193.09 358.437 192.418 358.437 191.564C358.437 190.685 358.656 189.995 359.093 189.494C359.53 188.991 360.132 188.74 360.896 188.74C361.605 188.74 362.166 188.956 362.577 189.387C362.988 189.817 363.194 190.41 363.194 191.165V191.782H359.613C359.629 192.303 359.77 192.705 360.035 192.986C360.302 193.265 360.676 193.404 361.158 193.404C361.476 193.404 361.77 193.375 362.042 193.317C362.317 193.256 362.613 193.156 362.927 193.016V193.944C362.648 194.077 362.366 194.171 362.081 194.226C361.796 194.281 361.471 194.308 361.104 194.308ZM360.896 189.605C360.533 189.605 360.241 189.72 360.021 189.95C359.804 190.18 359.675 190.515 359.632 190.956H362.071C362.065 190.512 361.958 190.177 361.751 189.95C361.544 189.72 361.258 189.605 360.896 189.605ZM367.853 194.211L367.625 193.463H367.586C367.327 193.79 367.066 194.014 366.803 194.133C366.541 194.25 366.205 194.308 365.793 194.308C365.265 194.308 364.852 194.166 364.555 193.881C364.259 193.596 364.112 193.192 364.112 192.671C364.112 192.117 364.317 191.699 364.73 191.418C365.141 191.136 365.767 190.981 366.609 190.956L367.537 190.927V190.64C367.537 190.296 367.457 190.041 367.294 189.873C367.136 189.701 366.888 189.615 366.551 189.615C366.276 189.615 366.012 189.655 365.759 189.737C365.507 189.817 365.264 189.913 365.031 190.023L364.662 189.207C364.953 189.054 365.272 188.94 365.618 188.862C365.965 188.781 366.292 188.74 366.599 188.74C367.284 188.74 367.798 188.889 368.145 189.187C368.495 189.485 368.669 189.953 368.669 190.592V194.211H367.853ZM366.153 193.433C366.567 193.433 366.9 193.319 367.149 193.088C367.401 192.855 367.528 192.53 367.528 192.112V191.646L366.838 191.675C366.3 191.695 365.908 191.785 365.662 191.947C365.419 192.106 365.298 192.35 365.298 192.68C365.298 192.92 365.369 193.107 365.512 193.239C365.654 193.369 365.868 193.433 366.153 193.433Z" fill="#DFE6EB"/>
<path d="M372.764 384.93H140.584C136.921 384.93 133.951 387.9 133.951 391.564V411.465C133.951 415.129 136.921 418.099 140.584 418.099H372.764C376.428 418.099 379.398 415.129 379.398 411.465V391.564C379.398 387.9 376.428 384.93 372.764 384.93Z" fill="#C7000F"/>
<path d="M222.846 403.688C222.846 404.33 222.615 404.835 222.151 405.204C221.691 405.574 221.05 405.758 220.227 405.758C219.47 405.758 218.799 405.615 218.216 405.331V403.931C218.695 404.145 219.101 404.296 219.431 404.383C219.764 404.47 220.068 404.514 220.344 404.514C220.674 404.514 220.927 404.451 221.102 404.325C221.28 404.198 221.369 404.011 221.369 403.761C221.369 403.622 221.33 403.499 221.252 403.392C221.174 403.282 221.06 403.176 220.907 403.076C220.759 402.976 220.452 402.815 219.99 402.595C219.555 402.391 219.23 402.195 219.013 402.007C218.795 401.819 218.622 401.601 218.493 401.351C218.363 401.102 218.299 400.81 218.299 400.476C218.299 399.848 218.511 399.354 218.935 398.995C219.363 398.635 219.952 398.456 220.703 398.456C221.072 398.456 221.424 398.499 221.758 398.587C222.095 398.674 222.446 398.797 222.812 398.956L222.326 400.126C221.947 399.971 221.633 399.863 221.383 399.801C221.138 399.739 220.895 399.709 220.655 399.709C220.37 399.709 220.151 399.775 219.999 399.908C219.847 400.041 219.771 400.214 219.771 400.427C219.771 400.561 219.801 400.677 219.863 400.777C219.925 400.875 220.022 400.971 220.155 401.064C220.291 401.155 220.61 401.321 221.111 401.56C221.776 401.878 222.231 402.196 222.477 402.517C222.723 402.835 222.846 403.224 222.846 403.688ZM226.306 404.577C226.564 404.577 226.875 404.52 227.238 404.407V405.51C226.869 405.676 226.416 405.758 225.878 405.758C225.285 405.758 224.853 405.609 224.581 405.311C224.312 405.01 224.178 404.559 224.178 403.96V401.341H223.468V400.714L224.284 400.219L224.712 399.073H225.66V400.228H227.18V401.341H225.66V403.96C225.66 404.171 225.718 404.326 225.835 404.427C225.954 404.527 226.112 404.577 226.306 404.577ZM231.791 405.661L231.504 404.922H231.466C231.216 405.236 230.958 405.455 230.693 405.578C230.431 405.698 230.088 405.758 229.663 405.758C229.142 405.758 228.73 405.609 228.429 405.311C228.131 405.013 227.981 404.588 227.981 404.038C227.981 403.462 228.183 403.037 228.584 402.765C228.989 402.49 229.598 402.337 230.411 402.308L231.354 402.279V402.041C231.354 401.491 231.072 401.215 230.508 401.215C230.074 401.215 229.564 401.346 228.978 401.608L228.487 400.607C229.113 400.281 229.806 400.117 230.567 400.117C231.296 400.117 231.854 400.276 232.243 400.593C232.632 400.91 232.826 401.394 232.826 402.041V405.661H231.791ZM231.354 403.144L230.78 403.163C230.35 403.176 230.029 403.254 229.818 403.397C229.608 403.539 229.502 403.756 229.502 404.048C229.502 404.466 229.742 404.675 230.222 404.675C230.565 404.675 230.839 404.575 231.043 404.378C231.25 404.181 231.354 403.918 231.354 403.591V403.144ZM237.388 400.126C237.589 400.126 237.756 400.141 237.889 400.17L237.777 401.56C237.657 401.528 237.512 401.511 237.34 401.511C236.866 401.511 236.497 401.633 236.232 401.876C235.969 402.119 235.838 402.459 235.838 402.896V405.661H234.356V400.228H235.478L235.697 401.142H235.77C235.939 400.838 236.166 400.593 236.45 400.408C236.739 400.22 237.051 400.126 237.388 400.126ZM241.163 404.577C241.422 404.577 241.733 404.52 242.096 404.407V405.51C241.727 405.676 241.274 405.758 240.736 405.758C240.143 405.758 239.711 405.609 239.439 405.311C239.17 405.01 239.036 404.559 239.036 403.96V401.341H238.326V400.714L239.142 400.219L239.57 399.073H240.518V400.228H242.038V401.341H240.518V403.96C240.518 404.171 240.576 404.326 240.692 404.427C240.812 404.527 240.969 404.577 241.163 404.577ZM247.407 401.71H247.893C248.369 401.71 248.72 401.632 248.947 401.472C249.174 401.314 249.287 401.064 249.287 400.724C249.287 400.388 249.17 400.148 248.937 400.005C248.708 399.863 248.349 399.791 247.864 399.791H247.407V401.71ZM247.407 402.935V405.661H245.901V398.558H247.97C248.936 398.558 249.65 398.733 250.113 399.087C250.576 399.437 250.808 399.97 250.808 400.685C250.808 401.103 250.693 401.476 250.463 401.803C250.233 402.127 249.908 402.381 249.486 402.566C250.555 404.162 251.252 405.195 251.576 405.661H249.904L248.208 402.935H247.407ZM254.603 401.181C254.288 401.181 254.042 401.282 253.864 401.482C253.685 401.68 253.583 401.962 253.558 402.327H255.637C255.631 401.962 255.535 401.68 255.35 401.482C255.166 401.282 254.917 401.181 254.603 401.181ZM254.811 405.758C253.937 405.758 253.253 405.516 252.761 405.034C252.269 404.551 252.023 403.868 252.023 402.983C252.023 402.073 252.249 401.37 252.703 400.875C253.16 400.376 253.789 400.126 254.593 400.126C255.36 400.126 255.958 400.345 256.385 400.782C256.813 401.22 257.027 401.824 257.027 402.595V403.314H253.524C253.54 403.735 253.665 404.064 253.898 404.3C254.132 404.537 254.458 404.655 254.879 404.655C255.206 404.655 255.516 404.621 255.807 404.553C256.099 404.485 256.404 404.376 256.721 404.227V405.374C256.462 405.504 256.185 405.599 255.89 405.661C255.595 405.725 255.236 405.758 254.811 405.758ZM260.438 405.758C258.747 405.758 257.901 404.83 257.901 402.974C257.901 402.05 258.132 401.346 258.591 400.86C259.051 400.371 259.71 400.126 260.569 400.126C261.197 400.126 261.761 400.25 262.259 400.495L261.822 401.642C261.589 401.549 261.372 401.472 261.172 401.414C260.971 401.353 260.769 401.322 260.569 401.322C259.798 401.322 259.413 401.869 259.413 402.964C259.413 404.026 259.798 404.558 260.569 404.558C260.854 404.558 261.118 404.52 261.361 404.446C261.604 404.368 261.847 404.248 262.09 404.087V405.355C261.85 405.506 261.607 405.612 261.361 405.671C261.118 405.729 260.81 405.758 260.438 405.758ZM264.534 402.935C264.534 403.472 264.621 403.879 264.796 404.155C264.974 404.43 265.262 404.568 265.661 404.568C266.056 404.568 266.339 404.432 266.511 404.159C266.686 403.884 266.774 403.476 266.774 402.935C266.774 402.397 266.686 401.994 266.511 401.725C266.336 401.457 266.05 401.322 265.651 401.322C265.256 401.322 264.971 401.457 264.796 401.725C264.621 401.991 264.534 402.394 264.534 402.935ZM268.29 402.935C268.29 403.819 268.057 404.511 267.59 405.01C267.124 405.508 266.474 405.758 265.641 405.758C265.12 405.758 264.66 405.644 264.261 405.418C263.863 405.188 263.557 404.859 263.343 404.432C263.129 404.004 263.022 403.505 263.022 402.935C263.022 402.048 263.255 401.358 263.717 400.865C264.181 400.373 264.832 400.126 265.671 400.126C266.192 400.126 266.652 400.24 267.051 400.466C267.449 400.694 267.755 401.019 267.969 401.443C268.183 401.868 268.29 402.365 268.29 402.935ZM272.546 400.126C272.747 400.126 272.913 400.141 273.046 400.17L272.934 401.56C272.815 401.528 272.669 401.511 272.497 401.511C272.024 401.511 271.654 401.633 271.389 401.876C271.127 402.119 270.995 402.459 270.995 402.896V405.661H269.513V400.228H270.636L270.855 401.142H270.927C271.096 400.838 271.323 400.593 271.608 400.408C271.896 400.22 272.208 400.126 272.546 400.126ZM275.752 405.758C275.114 405.758 274.612 405.51 274.246 405.015C273.883 404.519 273.702 403.832 273.702 402.954C273.702 402.064 273.887 401.37 274.256 400.875C274.628 400.376 275.14 400.126 275.791 400.126C276.475 400.126 276.996 400.392 277.355 400.923H277.404C277.33 400.519 277.292 400.157 277.292 399.84V398.101H278.779V405.661H277.642L277.355 404.956H277.292C276.956 405.491 276.442 405.758 275.752 405.758ZM276.272 404.577C276.651 404.577 276.928 404.467 277.103 404.247C277.282 404.026 277.379 403.652 277.394 403.124V402.964C277.394 402.381 277.304 401.963 277.122 401.71C276.944 401.458 276.653 401.331 276.247 401.331C275.917 401.331 275.66 401.472 275.475 401.754C275.294 402.033 275.204 402.439 275.204 402.974C275.204 403.508 275.296 403.91 275.48 404.179C275.665 404.444 275.929 404.577 276.272 404.577ZM280.266 398.825C280.266 398.342 280.535 398.101 281.073 398.101C281.61 398.101 281.879 398.342 281.879 398.825C281.879 399.054 281.811 399.234 281.675 399.364C281.542 399.49 281.341 399.554 281.073 399.554C280.535 399.554 280.266 399.311 280.266 398.825ZM281.811 405.661H280.329V400.228H281.811V405.661ZM288.385 405.661H286.903V402.488C286.903 402.096 286.833 401.803 286.694 401.608C286.555 401.411 286.333 401.312 286.028 401.312C285.613 401.312 285.314 401.452 285.129 401.73C284.945 402.005 284.852 402.464 284.852 403.105V405.661H283.37V400.228H284.503L284.702 400.923H284.784C284.95 400.661 285.176 400.463 285.465 400.33C285.756 400.194 286.087 400.126 286.456 400.126C287.088 400.126 287.567 400.298 287.894 400.641C288.221 400.981 288.385 401.474 288.385 402.119V405.661ZM294.638 400.228V400.981L293.788 401.2C293.943 401.443 294.021 401.715 294.021 402.016C294.021 402.6 293.817 403.054 293.409 403.382C293.003 403.706 292.44 403.868 291.718 403.868L291.45 403.853L291.232 403.829C291.08 403.946 291.003 404.075 291.003 404.218C291.003 404.432 291.276 404.538 291.82 404.538H292.743C293.339 404.538 293.793 404.666 294.104 404.922C294.418 405.178 294.575 405.554 294.575 406.05C294.575 406.684 294.309 407.176 293.778 407.526C293.25 407.876 292.49 408.051 291.499 408.051C290.741 408.051 290.162 407.919 289.76 407.652C289.362 407.39 289.162 407.021 289.162 406.545C289.162 406.218 289.264 405.944 289.468 405.724C289.672 405.504 289.972 405.346 290.367 405.253C290.215 405.188 290.082 405.083 289.968 404.937C289.856 404.788 289.799 404.631 289.799 404.466C289.799 404.258 289.859 404.087 289.978 403.951C290.099 403.811 290.272 403.675 290.498 403.542C290.213 403.419 289.987 403.222 289.818 402.949C289.653 402.677 289.57 402.357 289.57 401.987C289.57 401.394 289.763 400.937 290.148 400.612C290.534 400.288 291.085 400.126 291.8 400.126C291.953 400.126 292.133 400.141 292.34 400.17C292.551 400.196 292.685 400.216 292.743 400.228H294.638ZM290.445 406.428C290.445 406.632 290.542 406.793 290.736 406.909C290.934 407.026 291.209 407.084 291.562 407.084C292.094 407.084 292.51 407.011 292.811 406.866C293.112 406.72 293.263 406.521 293.263 406.268C293.263 406.064 293.174 405.923 292.996 405.846C292.818 405.768 292.542 405.729 292.17 405.729H291.402C291.13 405.729 290.901 405.792 290.717 405.919C290.536 406.048 290.445 406.218 290.445 406.428ZM290.984 402.007C290.984 402.302 291.051 402.535 291.183 402.707C291.319 402.879 291.525 402.964 291.8 402.964C292.079 402.964 292.283 402.879 292.413 402.707C292.542 402.535 292.607 402.302 292.607 402.007C292.607 401.353 292.338 401.025 291.8 401.025C291.256 401.025 290.984 401.353 290.984 402.007Z" fill="white"/>
<path d="M372.764 312.374H190.337C186.903 312.374 184.118 315.159 184.118 318.593V338.494C184.118 341.929 186.903 344.713 190.337 344.713H372.764C376.199 344.713 378.983 341.929 378.983 338.494V318.593C378.983 315.159 376.199 312.374 372.764 312.374Z" fill="white" stroke="#B5C4CF"/>
<path d="M194.63 325.587H196.637C197.58 325.587 198.261 325.728 198.683 326.009C199.104 326.291 199.314 326.736 199.314 327.346C199.314 327.766 199.196 328.114 198.959 328.39C198.726 328.662 198.385 328.838 197.934 328.919V328.968C199.013 329.152 199.552 329.72 199.552 330.668C199.552 331.303 199.337 331.799 198.906 332.155C198.479 332.512 197.879 332.69 197.108 332.69H194.63V325.587ZM195.456 328.628H196.817C197.4 328.628 197.819 328.537 198.075 328.356C198.331 328.171 198.459 327.862 198.459 327.428C198.459 327.03 198.316 326.743 198.031 326.568C197.746 326.389 197.293 326.301 196.671 326.301H195.456V328.628ZM195.456 329.327V331.985H196.938C197.512 331.985 197.942 331.876 198.231 331.655C198.522 331.431 198.668 331.083 198.668 330.61C198.668 330.17 198.519 329.846 198.221 329.638C197.926 329.431 197.476 329.327 196.87 329.327H195.456ZM201.719 327.365V330.819C201.719 331.254 201.818 331.577 202.016 331.791C202.213 332.005 202.522 332.112 202.944 332.112C203.501 332.112 203.907 331.959 204.163 331.655C204.422 331.351 204.552 330.853 204.552 330.163V327.365H205.358V332.69H204.693L204.576 331.976H204.532C204.367 332.238 204.137 332.439 203.842 332.578C203.551 332.717 203.217 332.787 202.842 332.787C202.194 332.787 201.708 332.633 201.384 332.326C201.063 332.017 200.903 331.526 200.903 330.848V327.365H201.719ZM207.88 332.69H207.074V327.365H207.88V332.69ZM207.006 325.922C207.006 325.737 207.051 325.603 207.142 325.519C207.232 325.431 207.346 325.387 207.482 325.387C207.611 325.387 207.723 325.431 207.817 325.519C207.91 325.606 207.958 325.74 207.958 325.922C207.958 326.103 207.91 326.239 207.817 326.33C207.723 326.418 207.611 326.461 207.482 326.461C207.346 326.461 207.232 326.418 207.142 326.33C207.051 326.239 207.006 326.103 207.006 325.922ZM210.396 332.69H209.59V325.13H210.396V332.69ZM213.827 332.121C213.97 332.121 214.107 332.112 214.24 332.092C214.373 332.07 214.478 332.047 214.556 332.024V332.641C214.469 332.683 214.339 332.717 214.167 332.743C213.999 332.773 213.847 332.787 213.711 332.787C212.68 332.787 212.165 332.245 212.165 331.159V327.992H211.402V327.603L212.165 327.268L212.505 326.131H212.972V327.365H214.517V327.992H212.972V331.125C212.972 331.446 213.048 331.692 213.2 331.864C213.353 332.036 213.562 332.121 213.827 332.121ZM215.178 330.392V329.653H217.563V330.392H215.178ZM219.638 332.69H218.831V327.365H219.638V332.69ZM218.763 325.922C218.763 325.737 218.809 325.603 218.899 325.519C218.99 325.431 219.103 325.387 219.239 325.387C219.369 325.387 219.48 325.431 219.575 325.519C219.669 325.606 219.716 325.74 219.716 325.922C219.716 326.103 219.669 326.239 219.575 326.33C219.48 326.418 219.369 326.461 219.239 326.461C219.103 326.461 218.99 326.418 218.899 326.33C218.809 326.239 218.763 326.103 218.763 325.922ZM224.992 332.69V329.245C224.992 328.811 224.894 328.487 224.696 328.273C224.498 328.06 224.189 327.953 223.768 327.953C223.211 327.953 222.802 328.103 222.544 328.404C222.284 328.705 222.155 329.203 222.155 329.896V332.69H221.348V327.365H222.004L222.136 328.093H222.175C222.34 327.831 222.571 327.628 222.869 327.487C223.167 327.341 223.499 327.268 223.865 327.268C224.506 327.268 224.989 327.423 225.313 327.734C225.637 328.042 225.799 328.535 225.799 329.216V332.69H224.992ZM234.394 332.69L233.417 329.565C233.356 329.375 233.24 328.941 233.072 328.263H233.033C232.904 328.831 232.79 329.268 232.693 329.575L231.687 332.69H230.754L229.302 327.365H230.147C230.491 328.702 230.751 329.721 230.929 330.421C231.111 331.12 231.215 331.592 231.24 331.835H231.279C231.315 331.65 231.371 331.412 231.449 331.12C231.531 330.826 231.6 330.593 231.658 330.421L232.635 327.365H233.509L234.462 330.421C234.643 330.978 234.766 331.446 234.831 331.825H234.87C234.883 331.708 234.917 331.529 234.972 331.286C235.03 331.043 235.369 329.736 235.988 327.365H236.824L235.351 332.69H234.394ZM240.039 332.787C239.252 332.787 238.63 332.547 238.173 332.068C237.721 331.589 237.494 330.923 237.494 330.071C237.494 329.213 237.704 328.53 238.125 328.025C238.55 327.521 239.118 327.268 239.831 327.268C240.498 327.268 241.026 327.488 241.415 327.928C241.803 328.365 241.998 328.943 241.998 329.663V330.173H238.329C238.345 330.798 238.503 331.273 238.8 331.597C239.102 331.92 239.524 332.083 240.069 332.083C240.642 332.083 241.209 331.963 241.769 331.723V332.442C241.485 332.565 241.213 332.653 240.958 332.705C240.705 332.759 240.399 332.787 240.039 332.787ZM239.821 327.943C239.393 327.943 239.052 328.082 238.795 328.36C238.543 328.639 238.394 329.025 238.348 329.517H241.133C241.133 329.009 241.019 328.62 240.793 328.351C240.566 328.079 240.242 327.943 239.821 327.943ZM245.855 327.278C246.555 327.278 247.097 327.517 247.483 327.996C247.872 328.472 248.066 329.148 248.066 330.022C248.066 330.897 247.87 331.577 247.478 332.063C247.089 332.546 246.549 332.787 245.855 332.787C245.509 332.787 245.191 332.724 244.903 332.598C244.618 332.468 244.378 332.27 244.184 332.005H244.126L243.956 332.69H243.378V325.13H244.184V326.967C244.184 327.378 244.171 327.747 244.145 328.074H244.184C244.56 327.543 245.116 327.278 245.855 327.278ZM245.738 327.953C245.188 327.953 244.791 328.112 244.548 328.428C244.305 328.743 244.184 329.274 244.184 330.022C244.184 330.771 244.309 331.307 244.558 331.631C244.807 331.951 245.208 332.112 245.758 332.112C246.254 332.112 246.623 331.932 246.866 331.572C247.109 331.21 247.23 330.69 247.23 330.012C247.23 329.32 247.109 328.802 246.866 328.462C246.623 328.123 246.248 327.953 245.738 327.953ZM254.193 332.787C253.422 332.787 252.824 332.551 252.4 332.078C251.979 331.602 251.768 330.929 251.768 330.061C251.768 329.171 251.982 328.482 252.409 327.996C252.841 327.511 253.453 327.268 254.246 327.268C254.502 327.268 254.758 327.295 255.014 327.351C255.27 327.405 255.471 327.47 255.617 327.545L255.369 328.229C255.191 328.158 254.997 328.1 254.786 328.055C254.575 328.006 254.389 327.982 254.227 327.982C253.145 327.982 252.604 328.671 252.604 330.051C252.604 330.706 252.735 331.208 252.997 331.558C253.263 331.908 253.655 332.083 254.173 332.083C254.618 332.083 255.072 331.987 255.539 331.796V332.51C255.182 332.695 254.734 332.787 254.193 332.787ZM260.081 332.69L259.921 331.932H259.882C259.617 332.265 259.352 332.492 259.085 332.612C258.823 332.729 258.494 332.787 258.099 332.787C257.571 332.787 257.157 332.651 256.856 332.379C256.557 332.107 256.409 331.72 256.409 331.218C256.409 330.142 257.269 329.579 258.988 329.527L259.892 329.497V329.167C259.892 328.749 259.801 328.442 259.62 328.244C259.442 328.043 259.155 327.943 258.76 327.943C258.316 327.943 257.814 328.079 257.254 328.351L257.006 327.734C257.269 327.592 257.555 327.48 257.866 327.399C258.18 327.317 258.494 327.278 258.808 327.278C259.444 327.278 259.913 327.419 260.217 327.7C260.526 327.982 260.679 328.433 260.679 329.055V332.69H260.081ZM258.259 332.121C258.762 332.121 259.155 331.983 259.44 331.708C259.729 331.433 259.872 331.048 259.872 330.552V330.071L259.066 330.105C258.425 330.128 257.962 330.228 257.677 330.406C257.395 330.581 257.254 330.855 257.254 331.227C257.254 331.519 257.342 331.74 257.517 331.893C257.694 332.046 257.942 332.121 258.259 332.121ZM269.133 332.69V329.225C269.133 328.802 269.043 328.484 268.861 328.273C268.68 328.06 268.398 327.953 268.016 327.953C267.514 327.953 267.143 328.097 266.903 328.385C266.664 328.673 266.543 329.117 266.543 329.716V332.69H265.737V329.225C265.737 328.802 265.646 328.484 265.465 328.273C265.284 328.06 265 327.953 264.615 327.953C264.11 327.953 263.739 328.105 263.502 328.409C263.269 328.71 263.152 329.206 263.152 329.896V332.69H262.346V327.365H263.002L263.133 328.093H263.172C263.324 327.835 263.537 327.632 263.813 327.487C264.091 327.341 264.402 327.268 264.746 327.268C265.578 327.268 266.123 327.569 266.378 328.171H266.417C266.576 327.893 266.806 327.672 267.107 327.511C267.408 327.349 267.752 327.268 268.137 327.268C268.74 327.268 269.19 327.423 269.488 327.734C269.789 328.042 269.94 328.535 269.94 329.216V332.69H269.133ZM273.856 332.787C273.068 332.787 272.447 332.547 271.99 332.068C271.537 331.589 271.31 330.923 271.31 330.071C271.31 329.213 271.52 328.53 271.942 328.025C272.366 327.521 272.934 327.268 273.647 327.268C274.314 327.268 274.842 327.488 275.231 327.928C275.62 328.365 275.814 328.943 275.814 329.663V330.173H272.146C272.162 330.798 272.319 331.273 272.617 331.597C272.918 331.92 273.341 332.083 273.885 332.083C274.458 332.083 275.025 331.963 275.586 331.723V332.442C275.301 332.565 275.03 332.653 274.774 332.705C274.521 332.759 274.215 332.787 273.856 332.787ZM273.637 327.943C273.209 327.943 272.868 328.082 272.612 328.36C272.359 328.639 272.21 329.025 272.165 329.517H274.949C274.949 329.009 274.835 328.62 274.609 328.351C274.382 328.079 274.059 327.943 273.637 327.943ZM279.623 327.268C279.86 327.268 280.072 327.287 280.259 327.326L280.148 328.074C279.928 328.025 279.734 328.001 279.564 328.001C279.134 328.001 278.765 328.176 278.457 328.526C278.152 328.875 278.001 329.312 278.001 329.833V332.69H277.194V327.365H277.86L277.952 328.351H277.991C278.188 328.005 278.426 327.737 278.705 327.55C278.983 327.361 279.289 327.268 279.623 327.268ZM284.531 332.69L284.37 331.932H284.332C284.065 332.265 283.8 332.492 283.535 332.612C283.272 332.729 282.944 332.787 282.548 332.787C282.02 332.787 281.605 332.651 281.304 332.379C281.006 332.107 280.857 331.72 280.857 331.218C280.857 330.142 281.717 329.579 283.437 329.527L284.341 329.497V329.167C284.341 328.749 284.25 328.442 284.069 328.244C283.89 328.043 283.604 327.943 283.209 327.943C282.765 327.943 282.263 328.079 281.703 328.351L281.455 327.734C281.717 327.592 282.004 327.48 282.315 327.399C282.629 327.317 282.944 327.278 283.258 327.278C283.892 327.278 284.362 327.419 284.667 327.7C284.974 327.982 285.128 328.433 285.128 329.055V332.69H284.531ZM282.708 332.121C283.211 332.121 283.604 331.983 283.889 331.708C284.177 331.433 284.322 331.048 284.322 330.552V330.071L283.515 330.105C282.874 330.128 282.41 330.228 282.125 330.406C281.844 330.581 281.703 330.855 281.703 331.227C281.703 331.519 281.79 331.74 281.965 331.893C282.143 332.046 282.391 332.121 282.708 332.121Z" fill="black"/>
<path d="M369.324 326.801C369.242 326.719 369.145 326.678 369.033 326.678H363.228C363.116 326.678 363.018 326.719 362.936 326.801C362.854 326.884 362.813 326.981 362.813 327.093C362.813 327.205 362.854 327.302 362.936 327.385L365.838 330.287C365.921 330.369 366.018 330.41 366.13 330.41C366.242 330.41 366.34 330.369 366.422 330.287L369.324 327.385C369.406 327.302 369.447 327.205 369.447 327.093C369.447 326.981 369.406 326.884 369.324 326.801Z" fill="#B5C4CF"/>
<path d="M167.119 311.959H140.584C136.921 311.959 133.951 314.929 133.951 318.593V338.494C133.951 342.158 136.921 345.128 140.584 345.128H167.119C170.783 345.128 173.753 342.158 173.753 338.494V318.593C173.753 314.929 170.783 311.959 167.119 311.959Z" fill="#EDF8FF"/>
<path d="M160.86 325.383C160.575 325.201 160.222 325.176 159.915 325.318L157.91 326.244V326.209C157.91 325.732 157.522 325.343 157.044 325.343H155.816V324.034C155.816 323.601 155.463 323.249 155.03 323.249H146.651C146.506 323.249 146.389 323.365 146.389 323.511C146.389 323.655 146.506 323.772 146.651 323.772H155.03C155.174 323.772 155.292 323.89 155.292 324.034V325.343H147.255C146.777 325.343 146.389 325.732 146.389 326.209V332.857C146.389 333.334 146.777 333.723 147.255 333.723H157.044C157.522 333.723 157.91 333.334 157.91 332.857V332.823L159.915 333.748C160.047 333.809 160.189 333.839 160.329 333.839C160.514 333.839 160.698 333.787 160.86 333.683C161.145 333.501 161.315 333.191 161.315 332.852V326.214C161.315 325.875 161.145 325.565 160.86 325.383ZM157.387 332.857C157.387 333.046 157.233 333.199 157.044 333.199H147.255C147.066 333.199 146.912 333.046 146.912 332.857V326.209C146.912 326.021 147.066 325.867 147.255 325.867H157.044C157.233 325.867 157.387 326.021 157.387 326.209V326.485V332.581V332.857ZM160.791 332.852C160.791 333.013 160.713 333.155 160.578 333.242C160.442 333.328 160.281 333.341 160.135 333.272L157.91 332.246V326.82L160.134 325.794C160.28 325.725 160.442 325.737 160.577 325.824C160.713 325.91 160.791 326.053 160.791 326.214V332.852Z" fill="#153C55"/>
<path d="M372.764 259.304H190.337C186.903 259.304 184.118 262.089 184.118 265.524V285.425C184.118 288.859 186.903 291.644 190.337 291.644H372.764C376.199 291.644 378.983 288.859 378.983 285.425V265.524C378.983 262.089 376.199 259.304 372.764 259.304Z" fill="white" stroke="#B5C4CF"/>
<path d="M194.63 272.517H196.637C197.58 272.517 198.261 272.658 198.683 272.939C199.104 273.221 199.314 273.666 199.314 274.276C199.314 274.696 199.196 275.045 198.959 275.32C198.726 275.593 198.385 275.769 197.934 275.85V275.899C199.013 276.083 199.552 276.65 199.552 277.599C199.552 278.234 199.337 278.73 198.906 279.085C198.479 279.442 197.879 279.62 197.108 279.62H194.63V272.517ZM195.456 275.559H196.817C197.4 275.559 197.819 275.468 198.075 275.286C198.331 275.102 198.459 274.793 198.459 274.358C198.459 273.96 198.316 273.673 198.031 273.498C197.746 273.32 197.293 273.231 196.671 273.231H195.456V275.559ZM195.456 276.258V278.915H196.938C197.512 278.915 197.942 278.806 198.231 278.585C198.522 278.362 198.668 278.013 198.668 277.541C198.668 277.1 198.519 276.776 198.221 276.569C197.926 276.361 197.476 276.258 196.87 276.258H195.456ZM201.719 274.295V277.75C201.719 278.184 201.818 278.507 202.016 278.721C202.213 278.935 202.522 279.042 202.944 279.042C203.501 279.042 203.907 278.89 204.163 278.585C204.422 278.281 204.552 277.784 204.552 277.094V274.295H205.358V279.62H204.693L204.576 278.906H204.532C204.367 279.168 204.137 279.369 203.842 279.508C203.551 279.648 203.217 279.717 202.842 279.717C202.194 279.717 201.708 279.564 201.384 279.256C201.063 278.948 200.903 278.456 200.903 277.779V274.295H201.719ZM207.88 279.62H207.074V274.295H207.88V279.62ZM207.006 272.852C207.006 272.667 207.051 272.533 207.142 272.449C207.232 272.361 207.346 272.317 207.482 272.317C207.611 272.317 207.723 272.361 207.817 272.449C207.91 272.536 207.958 272.671 207.958 272.852C207.958 273.034 207.91 273.17 207.817 273.26C207.723 273.348 207.611 273.391 207.482 273.391C207.346 273.391 207.232 273.348 207.142 273.26C207.051 273.17 207.006 273.034 207.006 272.852ZM210.396 279.62H209.59V272.06H210.396V279.62ZM213.827 279.051C213.97 279.051 214.107 279.042 214.24 279.022C214.373 279 214.478 278.978 214.556 278.954V279.571C214.469 279.614 214.339 279.648 214.167 279.673C213.999 279.703 213.847 279.717 213.711 279.717C212.68 279.717 212.165 279.175 212.165 278.09V274.922H211.402V274.533L212.165 274.198L212.505 273.061H212.972V274.295H214.517V274.922H212.972V278.056C212.972 278.376 213.048 278.623 213.2 278.794C213.353 278.966 213.562 279.051 213.827 279.051ZM215.178 277.323V276.584H217.563V277.323H215.178ZM219.638 279.62H218.831V274.295H219.638V279.62ZM218.763 272.852C218.763 272.667 218.809 272.533 218.899 272.449C218.99 272.361 219.103 272.317 219.239 272.317C219.369 272.317 219.48 272.361 219.575 272.449C219.669 272.536 219.716 272.671 219.716 272.852C219.716 273.034 219.669 273.17 219.575 273.26C219.48 273.348 219.369 273.391 219.239 273.391C219.103 273.391 218.99 273.348 218.899 273.26C218.809 273.17 218.763 273.034 218.763 272.852ZM224.992 279.62V276.176C224.992 275.741 224.894 275.418 224.696 275.204C224.498 274.99 224.189 274.883 223.768 274.883C223.211 274.883 222.802 275.034 222.544 275.335C222.284 275.636 222.155 276.133 222.155 276.827V279.62H221.348V274.295H222.004L222.136 275.024H222.175C222.34 274.762 222.571 274.559 222.869 274.417C223.167 274.271 223.499 274.198 223.865 274.198C224.506 274.198 224.989 274.353 225.313 274.664C225.637 274.973 225.799 275.466 225.799 276.147V279.62H224.992ZM236.833 279.62V276.156C236.833 275.732 236.742 275.414 236.561 275.204C236.379 274.99 236.098 274.883 235.716 274.883C235.213 274.883 234.843 275.027 234.603 275.316C234.363 275.604 234.243 276.047 234.243 276.647V279.62H233.437V276.156C233.437 275.732 233.346 275.414 233.164 275.204C232.983 274.99 232.7 274.883 232.314 274.883C231.809 274.883 231.438 275.036 231.201 275.34C230.968 275.641 230.851 276.137 230.851 276.827V279.62H230.046V274.295H230.701L230.832 275.024H230.871C231.023 274.765 231.237 274.562 231.512 274.417C231.791 274.271 232.102 274.198 232.445 274.198C233.278 274.198 233.822 274.499 234.078 275.102H234.117C234.275 274.823 234.506 274.603 234.807 274.441C235.108 274.279 235.451 274.198 235.837 274.198C236.44 274.198 236.89 274.353 237.188 274.664C237.489 274.973 237.639 275.466 237.639 276.147V279.62H236.833ZM240.112 279.62H239.306V274.295H240.112V279.62ZM239.238 272.852C239.238 272.667 239.283 272.533 239.374 272.449C239.465 272.361 239.578 272.317 239.714 272.317C239.843 272.317 239.955 272.361 240.049 272.449C240.143 272.536 240.19 272.671 240.19 272.852C240.19 273.034 240.143 273.17 240.049 273.26C239.955 273.348 239.843 273.391 239.714 273.391C239.578 273.391 239.465 273.348 239.374 273.26C239.283 273.17 239.238 273.034 239.238 272.852ZM243.951 279.717C243.18 279.717 242.582 279.481 242.158 279.008C241.737 278.532 241.526 277.86 241.526 276.992C241.526 276.101 241.74 275.413 242.168 274.927C242.598 274.441 243.211 274.198 244.004 274.198C244.26 274.198 244.516 274.225 244.772 274.281C245.028 274.336 245.228 274.4 245.374 274.475L245.126 275.16C244.948 275.089 244.754 275.031 244.543 274.985C244.333 274.937 244.147 274.912 243.985 274.912C242.903 274.912 242.362 275.602 242.362 276.982C242.362 277.636 242.493 278.138 242.756 278.488C243.021 278.838 243.413 279.013 243.932 279.013C244.375 279.013 244.83 278.917 245.296 278.726V279.44C244.941 279.625 244.492 279.717 243.951 279.717ZM248.994 274.198C249.23 274.198 249.442 274.217 249.631 274.256L249.519 275.005C249.298 274.956 249.104 274.932 248.936 274.932C248.505 274.932 248.136 275.107 247.828 275.457C247.524 275.806 247.371 276.242 247.371 276.764V279.62H246.565V274.295H247.23L247.323 275.282H247.362C247.559 274.935 247.797 274.667 248.076 274.48C248.355 274.292 248.661 274.198 248.994 274.198ZM255.223 276.953C255.223 277.821 255.004 278.499 254.567 278.988C254.13 279.474 253.526 279.717 252.754 279.717C252.278 279.717 251.855 279.605 251.486 279.382C251.117 279.158 250.832 278.838 250.632 278.42C250.431 278.002 250.331 277.513 250.331 276.953C250.331 276.084 250.547 275.41 250.981 274.927C251.415 274.441 252.018 274.198 252.788 274.198C253.534 274.198 254.125 274.446 254.562 274.941C255.002 275.437 255.223 276.108 255.223 276.953ZM251.166 276.953C251.166 277.633 251.302 278.152 251.574 278.507C251.846 278.864 252.246 279.042 252.774 279.042C253.302 279.042 253.702 278.866 253.974 278.512C254.249 278.156 254.387 277.636 254.387 276.953C254.387 276.276 254.249 275.763 253.974 275.413C253.702 275.06 253.299 274.883 252.764 274.883C252.236 274.883 251.838 275.056 251.569 275.403C251.301 275.749 251.166 276.266 251.166 276.953ZM259.119 279.717C258.773 279.717 258.455 279.654 258.167 279.528C257.882 279.398 257.643 279.201 257.449 278.935H257.39C257.429 279.246 257.449 279.541 257.449 279.819V282.011H256.642V274.295H257.298L257.41 275.024H257.449C257.656 274.732 257.897 274.522 258.172 274.392C258.448 274.263 258.764 274.198 259.119 274.198C259.826 274.198 260.37 274.439 260.752 274.922C261.138 275.405 261.33 276.081 261.33 276.953C261.33 277.827 261.134 278.507 260.742 278.993C260.354 279.476 259.813 279.717 259.119 279.717ZM259.003 274.883C258.459 274.883 258.065 275.034 257.822 275.335C257.58 275.636 257.454 276.115 257.449 276.773V276.953C257.449 277.701 257.573 278.237 257.822 278.561C258.072 278.881 258.472 279.042 259.022 279.042C259.483 279.042 259.842 278.856 260.101 278.483C260.363 278.111 260.494 277.598 260.494 276.943C260.494 276.279 260.363 275.77 260.101 275.418C259.842 275.061 259.476 274.883 259.003 274.883ZM266.388 279.62V276.176C266.388 275.741 266.29 275.418 266.091 275.204C265.894 274.99 265.585 274.883 265.164 274.883C264.603 274.883 264.193 275.036 263.935 275.34C263.678 275.644 263.551 276.143 263.551 276.837V279.62H262.744V272.06H263.551V274.349C263.551 274.624 263.537 274.852 263.512 275.034H263.561C263.719 274.778 263.945 274.577 264.236 274.431C264.531 274.282 264.866 274.208 265.241 274.208C265.892 274.208 266.38 274.363 266.704 274.674C267.031 274.982 267.195 275.473 267.195 276.147V279.62H266.388ZM273.452 276.953C273.452 277.821 273.234 278.499 272.796 278.988C272.359 279.474 271.756 279.717 270.985 279.717C270.509 279.717 270.086 279.605 269.717 279.382C269.347 279.158 269.062 278.838 268.861 278.42C268.66 278.002 268.56 277.513 268.56 276.953C268.56 276.084 268.777 275.41 269.211 274.927C269.645 274.441 270.247 274.198 271.019 274.198C271.763 274.198 272.354 274.446 272.792 274.941C273.233 275.437 273.452 276.108 273.452 276.953ZM269.396 276.953C269.396 277.633 269.532 278.152 269.804 278.507C270.076 278.864 270.476 279.042 271.004 279.042C271.532 279.042 271.932 278.866 272.204 278.512C272.48 278.156 272.617 277.636 272.617 276.953C272.617 276.276 272.48 275.763 272.204 275.413C271.932 275.06 271.529 274.883 270.995 274.883C270.466 274.883 270.067 275.056 269.799 275.403C269.53 275.749 269.396 276.266 269.396 276.953ZM278.516 279.62V276.176C278.516 275.741 278.417 275.418 278.219 275.204C278.021 274.99 277.712 274.883 277.291 274.883C276.734 274.883 276.326 275.034 276.067 275.335C275.807 275.636 275.678 276.133 275.678 276.827V279.62H274.871V274.295H275.527L275.659 275.024H275.697C275.863 274.762 276.094 274.559 276.392 274.417C276.69 274.271 277.022 274.198 277.388 274.198C278.03 274.198 278.512 274.353 278.836 274.664C279.16 274.973 279.322 275.466 279.322 276.147V279.62H278.516ZM283.233 279.717C282.446 279.717 281.824 279.478 281.367 278.998C280.914 278.519 280.687 277.853 280.687 277.002C280.687 276.143 280.898 275.461 281.319 274.956C281.743 274.451 282.312 274.198 283.024 274.198C283.691 274.198 284.22 274.419 284.609 274.859C284.997 275.296 285.192 275.874 285.192 276.594V277.104H281.523C281.539 277.729 281.696 278.203 281.994 278.527C282.295 278.851 282.718 279.013 283.262 279.013C283.836 279.013 284.402 278.893 284.963 278.653V279.372C284.677 279.496 284.407 279.583 284.152 279.635C283.899 279.69 283.593 279.717 283.233 279.717ZM283.015 274.873C282.587 274.873 282.245 275.012 281.989 275.291C281.737 275.57 281.588 275.955 281.542 276.448H284.327C284.327 275.939 284.213 275.55 283.987 275.282C283.759 275.009 283.435 274.873 283.015 274.873Z" fill="black"/>
<path d="M369.324 273.731C369.242 273.649 369.145 273.608 369.033 273.608H363.228C363.116 273.608 363.018 273.649 362.936 273.731C362.854 273.814 362.813 273.911 362.813 274.023C362.813 274.135 362.854 274.233 362.936 274.315L365.838 277.217C365.921 277.299 366.018 277.34 366.13 277.34C366.242 277.34 366.34 277.299 366.422 277.217L369.324 274.315C369.406 274.233 369.447 274.135 369.447 274.023C369.447 273.911 369.406 273.814 369.324 273.731Z" fill="#B5C4CF"/>
<path d="M167.119 258.89H140.584C136.921 258.89 133.951 261.86 133.951 265.524V285.425C133.951 289.088 136.921 292.058 140.584 292.058H167.119C170.783 292.058 173.753 289.088 173.753 285.425V265.524C173.753 261.86 170.783 258.89 167.119 258.89Z" fill="#DFE6EB"/>
<path d="M157.403 275.217C157.265 275.217 157.153 275.332 157.153 275.474V277.018C157.153 279.005 155.581 280.621 153.648 280.621C151.716 280.621 150.144 279.005 150.144 277.018V275.474C150.144 275.332 150.032 275.217 149.893 275.217C149.755 275.217 149.643 275.332 149.643 275.474V277.018C149.643 279.202 151.306 280.988 153.398 281.123V282.422H152.146C152.008 282.422 151.896 282.537 151.896 282.68C151.896 282.822 152.008 282.937 152.146 282.937H155.15C155.288 282.937 155.401 282.822 155.401 282.68C155.401 282.537 155.288 282.422 155.15 282.422H153.899V281.123C155.99 280.988 157.654 279.202 157.654 277.018V275.474C157.654 275.332 157.541 275.217 157.403 275.217Z" fill="#8595A9"/>
<path d="M153.648 279.849C155.166 279.849 156.402 278.579 156.402 277.018V270.842C156.402 269.282 155.166 268.011 153.648 268.011C152.13 268.011 150.895 269.282 150.895 270.842V277.018C150.895 278.579 152.13 279.849 153.648 279.849ZM151.395 270.842C151.395 269.565 152.406 268.526 153.648 268.526C154.89 268.526 155.901 269.565 155.901 270.842V277.018C155.901 278.295 154.89 279.334 153.648 279.334C152.406 279.334 151.395 278.295 151.395 277.018V270.842Z" fill="#8595A9"/>
<path d="M160.775 268.791L146.389 282.108L146.928 282.724L161.315 269.408L160.775 268.791Z" fill="#8595A9"/>
<path d="M371.935 102.998C371.935 103.91 372.588 104.656 373.386 104.656C374.185 104.656 374.837 103.91 374.837 102.998C374.837 102.086 374.185 101.339 373.386 101.339C372.588 101.339 371.935 102.086 371.935 102.998ZM371.935 93.0472C371.935 93.9594 372.588 94.7056 373.386 94.7056C374.185 94.7056 374.837 93.9594 374.837 93.0472C374.837 92.1351 374.185 91.3888 373.386 91.3888C372.588 91.3888 371.935 92.1351 371.935 93.0472ZM371.935 98.0225C371.935 98.9346 372.588 99.6809 373.386 99.6809C374.185 99.6809 374.837 98.9346 374.837 98.0225C374.837 97.1104 374.185 96.3641 373.386 96.3641C372.588 96.3641 371.935 97.1104 371.935 98.0225Z" fill="#153C55"/>
<path d="M356.152 104.656H354.549C354.229 104.656 353.963 104.416 353.932 104.098L353.767 103.113C353.458 103.017 353.158 102.892 352.871 102.741L352.046 103.331C351.947 103.412 351.808 103.462 351.665 103.462C351.5 103.462 351.344 103.398 351.226 103.28L350.092 102.146C349.866 101.92 349.849 101.563 350.051 101.315L350.631 100.502C350.481 100.215 350.356 99.9143 350.26 99.6062L349.261 99.4394C348.957 99.4103 348.717 99.1449 348.717 98.8242V97.2208C348.717 96.9005 348.956 96.6352 349.275 96.6034L350.26 96.4385C350.356 96.1292 350.481 95.8291 350.631 95.5432L350.043 94.718C349.848 94.4823 349.866 94.125 350.092 93.8987L351.227 92.7645C351.445 92.5463 351.82 92.5281 352.058 92.7228L352.872 93.3036C353.157 93.1529 353.457 93.0285 353.767 92.9322L353.933 91.9327C353.963 91.6289 354.229 91.3888 354.549 91.3888H356.152C356.472 91.3888 356.738 91.6286 356.77 91.9465L356.934 92.9322C357.244 93.0284 357.544 93.1529 357.83 93.3036L358.655 92.7143C358.754 92.6327 358.893 92.5829 359.036 92.5829C359.201 92.5829 359.357 92.6474 359.474 92.7645L360.608 93.8987C360.834 94.1244 360.852 94.4814 360.65 94.7294L360.07 95.5432C360.22 95.8291 360.345 96.1292 360.441 96.4385L361.44 96.6054C361.745 96.6352 361.984 96.9005 361.984 97.2208V98.8242C361.984 99.1449 361.745 99.41 361.425 99.4409L360.441 99.6056C360.345 99.9151 360.22 100.215 360.07 100.501L360.659 101.326C360.853 101.563 360.835 101.92 360.608 102.146L359.474 103.28C359.257 103.498 358.881 103.517 358.642 103.321L357.83 102.741C357.543 102.892 357.243 103.017 356.934 103.113L356.768 104.112C356.738 104.416 356.472 104.656 356.152 104.656ZM352.855 102.264C352.892 102.264 352.929 102.273 352.962 102.292C353.297 102.479 353.652 102.627 354.02 102.731C354.102 102.754 354.163 102.822 354.177 102.906L354.365 104.04C354.377 104.146 354.457 104.218 354.549 104.218H356.152C356.244 104.218 356.324 104.146 356.333 104.055L356.525 102.906C356.538 102.822 356.599 102.754 356.681 102.731C357.048 102.627 357.404 102.479 357.738 102.292C357.812 102.25 357.904 102.255 357.972 102.305L358.909 102.974C359.003 103.05 359.099 103.034 359.163 102.97L360.298 101.836C360.364 101.77 360.37 101.665 360.31 101.593L359.633 100.645C359.583 100.576 359.578 100.484 359.619 100.41C359.807 100.077 359.954 99.7218 360.058 99.353C360.081 99.2712 360.149 99.2103 360.233 99.1963L361.368 99.007C361.473 98.9961 361.546 98.917 361.546 98.8247V97.2212C361.546 97.1289 361.474 97.0493 361.383 97.0404L360.234 96.8492C360.149 96.8351 360.081 96.7742 360.058 96.6924C359.954 96.3237 359.807 95.9681 359.62 95.6358C359.579 95.5614 359.583 95.47 359.633 95.4009L360.302 94.4642C360.37 94.3804 360.364 94.2761 360.298 94.2099L359.164 93.0753C359.1 93.0116 358.991 93.0061 358.921 93.0628L357.972 93.7409C357.904 93.7904 357.812 93.7953 357.738 93.7539C357.405 93.5669 357.05 93.4193 356.681 93.315C356.599 93.2922 356.539 93.2238 356.525 93.14L356.336 92.0053C356.324 91.8974 356.246 91.8273 356.152 91.8273H354.549C354.454 91.8273 354.377 91.8972 354.368 91.9901L354.177 93.1391C354.163 93.2228 354.102 93.2911 354.02 93.3141C353.651 93.4186 353.296 93.566 352.963 93.753C352.889 93.7944 352.797 93.7896 352.729 93.74L351.792 93.0708C351.697 92.9953 351.601 93.0105 351.537 93.0747L350.403 94.2088C350.336 94.275 350.331 94.3794 350.391 94.4515L351.068 95.4001C351.118 95.4694 351.122 95.5607 351.081 95.6349C350.894 95.9672 350.747 96.3228 350.642 96.6918C350.62 96.7734 350.551 96.8343 350.467 96.8483L349.333 97.0376C349.225 97.0489 349.155 97.1268 349.155 97.2208V98.8243C349.155 98.9181 349.225 98.9957 349.318 99.0047L350.467 99.1958C350.551 99.2097 350.619 99.2708 350.642 99.3526C350.746 99.7194 350.893 100.075 351.081 100.41C351.122 100.484 351.117 100.575 351.068 100.645L350.399 101.581C350.33 101.665 350.336 101.769 350.403 101.836L351.536 102.97C351.601 103.034 351.71 103.04 351.779 102.982L352.728 102.305C352.766 102.278 352.811 102.264 352.855 102.264ZM355.351 100.647C353.904 100.647 352.726 99.4694 352.726 98.0223C352.726 96.5749 353.904 95.3975 355.351 95.3975C356.798 95.3975 357.975 96.5749 357.975 98.0223C357.975 99.4692 356.797 100.647 355.351 100.647ZM355.351 95.8359C354.145 95.8359 353.165 96.8167 353.165 98.0223C353.165 99.2276 354.145 100.208 355.351 100.208C356.556 100.208 357.537 99.2276 357.537 98.0223C357.536 96.8167 356.556 95.8359 355.351 95.8359Z" fill="#153C55"/>
<path d="M137.151 97.9836H137.812C138.429 97.9836 138.891 97.8627 139.198 97.6209C139.505 97.3747 139.658 97.0184 139.658 96.552C139.658 96.0813 139.528 95.7336 139.269 95.509C139.014 95.2844 138.613 95.1721 138.064 95.1721H137.151V97.9836ZM141.686 96.4807C141.686 97.5 141.366 98.2795 140.727 98.8193C140.092 99.3592 139.187 99.6291 138.012 99.6291H137.151V102.998H135.143V93.5266H138.168C139.317 93.5266 140.189 93.775 140.785 94.2717C141.385 94.764 141.686 95.5003 141.686 96.4807ZM148.642 99.8858C148.642 100.899 148.387 101.69 147.876 102.261C147.366 102.828 146.661 103.111 145.762 103.111C145.206 103.111 144.713 102.981 144.283 102.72C143.852 102.459 143.519 102.085 143.285 101.598C143.051 101.11 142.933 100.54 142.933 99.8858C142.933 98.873 143.187 98.0851 143.693 97.5221C144.199 96.9552 144.902 96.6718 145.802 96.6718C146.671 96.6718 147.361 96.9609 147.871 97.5391C148.385 98.1173 148.642 98.8995 148.642 99.8858ZM143.908 99.8858C143.908 100.679 144.067 101.284 144.385 101.7C144.702 102.115 145.169 102.323 145.785 102.323C146.401 102.323 146.867 102.117 147.185 101.705C147.506 101.29 147.667 100.683 147.667 99.8858C147.667 99.096 147.506 98.4971 147.185 98.0889C146.867 97.677 146.397 97.4711 145.773 97.4711C145.157 97.4711 144.693 97.6733 144.379 98.0776C144.065 98.4819 143.908 99.0847 143.908 99.8858ZM153.131 96.6718C153.407 96.6718 153.654 96.6945 153.874 96.7398L153.743 97.6128C153.486 97.5561 153.259 97.5277 153.063 97.5277C152.56 97.5277 152.13 97.7318 151.771 98.1399C151.415 98.5481 151.238 99.0563 151.238 99.6648V102.998H150.297V96.7852H151.073L151.181 97.9359H151.226C151.457 97.5315 151.735 97.2198 152.06 97.0006C152.385 96.7814 152.742 96.6718 153.131 96.6718ZM157.042 102.335C157.209 102.335 157.369 102.323 157.524 102.301C157.679 102.274 157.802 102.248 157.892 102.221V102.941C157.79 102.99 157.639 103.03 157.439 103.06C157.243 103.094 157.065 103.111 156.906 103.111C155.705 103.111 155.104 102.478 155.104 101.212V97.5164H154.214V97.063L155.104 96.6718L155.5 95.3454H156.045V96.7852H157.847V97.5164H156.045V101.173C156.045 101.547 156.133 101.834 156.311 102.034C156.489 102.234 156.732 102.335 157.042 102.335ZM162.96 102.998L162.773 102.114H162.728C162.418 102.503 162.108 102.767 161.798 102.907C161.492 103.043 161.108 103.111 160.647 103.111C160.031 103.111 159.548 102.952 159.196 102.635C158.849 102.318 158.675 101.866 158.675 101.28C158.675 100.026 159.678 99.3681 161.685 99.3076L162.739 99.2736V98.8881C162.739 98.4007 162.633 98.0417 162.422 97.8112C162.214 97.5769 161.879 97.4597 161.418 97.4597C160.901 97.4597 160.315 97.6184 159.661 97.9359L159.372 97.2159C159.678 97.0497 160.013 96.9193 160.375 96.8249C160.742 96.7304 161.108 96.6832 161.475 96.6832C162.216 96.6832 162.764 96.8475 163.119 97.1763C163.478 97.5051 163.657 98.0322 163.657 98.7578V102.998H162.96ZM160.834 102.335C161.42 102.335 161.879 102.174 162.212 101.853C162.548 101.532 162.716 101.082 162.716 100.504V99.9425L161.775 99.9822C161.027 100.009 160.487 100.126 160.154 100.334C159.825 100.538 159.661 100.857 159.661 101.292C159.661 101.632 159.763 101.891 159.967 102.068C160.175 102.246 160.464 102.335 160.834 102.335ZM166.543 102.998H165.602V96.7852H166.543V102.998ZM165.522 95.1016C165.522 94.8863 165.575 94.7294 165.681 94.6312C165.787 94.5291 165.919 94.4781 166.078 94.4781C166.229 94.4781 166.359 94.5291 166.469 94.6312C166.578 94.7332 166.633 94.89 166.633 95.1016C166.633 95.3132 166.578 95.472 166.469 95.5778C166.359 95.6798 166.229 95.7308 166.078 95.7308C165.919 95.7308 165.787 95.6798 165.681 95.5778C165.575 95.472 165.522 95.3132 165.522 95.1016ZM169.479 102.998H168.538V94.1777H169.479V102.998Z" fill="#153C55"/>
<path d="M299.871 246.452L298.987 244.192H296.14L295.265 246.452H294.429L297.238 239.319H297.933L300.726 246.452H299.871ZM298.729 243.449L297.904 241.248C297.797 240.97 297.686 240.628 297.573 240.223C297.501 240.534 297.399 240.875 297.267 241.248L296.431 243.449H298.729ZM305.206 245.738H305.163C304.789 246.278 304.233 246.549 303.491 246.549C302.794 246.549 302.252 246.311 301.863 245.835C301.478 245.359 301.285 244.681 301.285 243.804C301.285 242.926 301.479 242.244 301.868 241.758C302.257 241.272 302.798 241.029 303.491 241.029C304.213 241.029 304.767 241.291 305.153 241.816H305.216L305.182 241.432L305.163 241.058V238.892H305.969V246.452H305.313L305.206 245.738ZM303.593 245.874C304.143 245.874 304.542 245.724 304.788 245.427C305.037 245.125 305.163 244.641 305.163 243.974V243.804C305.163 243.049 305.036 242.511 304.784 242.19C304.534 241.867 304.133 241.704 303.583 241.704C303.11 241.704 302.747 241.889 302.495 242.258C302.245 242.625 302.121 243.143 302.121 243.813C302.121 244.494 302.245 245.007 302.495 245.354C302.745 245.7 303.11 245.874 303.593 245.874ZM308.85 246.452L306.828 241.126H307.693L308.84 244.285C309.1 245.023 309.251 245.502 309.297 245.723H309.336C309.372 245.551 309.484 245.196 309.671 244.659C309.863 244.118 310.288 242.941 310.949 241.126H311.814L309.793 246.452H308.85ZM315.944 246.452L315.783 245.694H315.744C315.479 246.027 315.213 246.254 314.947 246.374C314.685 246.491 314.356 246.549 313.961 246.549C313.433 246.549 313.019 246.413 312.717 246.141C312.42 245.869 312.271 245.481 312.271 244.98C312.271 243.904 313.13 243.34 314.85 243.289L315.754 243.259V242.929C315.754 242.511 315.664 242.204 315.482 242.006C315.304 241.805 315.017 241.704 314.622 241.704C314.179 241.704 313.676 241.84 313.116 242.113L312.868 241.495C313.13 241.354 313.417 241.242 313.728 241.16C314.043 241.079 314.356 241.039 314.67 241.039C315.305 241.039 315.775 241.18 316.08 241.461C316.388 241.743 316.541 242.195 316.541 242.817V246.452H315.944ZM314.121 245.883C314.624 245.883 315.017 245.745 315.302 245.47C315.591 245.195 315.735 244.81 315.735 244.314V243.833L314.928 243.867C314.287 243.889 313.824 243.99 313.538 244.168C313.256 244.343 313.116 244.617 313.116 244.989C313.116 245.281 313.203 245.502 313.378 245.655C313.557 245.807 313.804 245.883 314.121 245.883ZM321.852 246.452V243.007C321.852 242.573 321.753 242.249 321.555 242.035C321.358 241.821 321.049 241.714 320.627 241.714C320.07 241.714 319.662 241.865 319.403 242.166C319.144 242.467 319.015 242.965 319.015 243.658V246.452H318.208V241.126H318.864L318.995 241.855H319.034C319.199 241.593 319.431 241.39 319.729 241.248C320.026 241.102 320.359 241.029 320.724 241.029C321.366 241.029 321.849 241.184 322.172 241.495C322.496 241.804 322.658 242.297 322.658 242.978V246.452H321.852ZM326.448 246.549C325.677 246.549 325.079 246.312 324.655 245.84C324.234 245.364 324.024 244.691 324.024 243.823C324.024 242.932 324.238 242.244 324.665 241.758C325.096 241.272 325.708 241.029 326.502 241.029C326.758 241.029 327.013 241.057 327.269 241.112C327.525 241.167 327.726 241.232 327.871 241.306L327.623 241.991C327.446 241.92 327.251 241.862 327.041 241.816C326.83 241.768 326.644 241.743 326.482 241.743C325.4 241.743 324.86 242.433 324.86 243.813C324.86 244.467 324.991 244.97 325.253 245.32C325.518 245.67 325.91 245.845 326.429 245.845C326.872 245.845 327.327 245.748 327.794 245.558V246.272C327.438 246.457 326.989 246.549 326.448 246.549ZM331.312 246.549C330.525 246.549 329.903 246.309 329.446 245.83C328.992 245.35 328.765 244.685 328.765 243.833C328.765 242.975 328.976 242.292 329.397 241.787C329.822 241.282 330.39 241.029 331.103 241.029C331.77 241.029 332.298 241.25 332.687 241.69C333.076 242.127 333.27 242.705 333.27 243.425V243.935H329.601C329.618 244.56 329.774 245.035 330.073 245.359C330.374 245.682 330.797 245.845 331.341 245.845C331.914 245.845 332.481 245.724 333.042 245.485V246.204C332.756 246.327 332.486 246.414 332.23 246.467C331.977 246.521 331.671 246.549 331.312 246.549ZM331.093 241.704C330.665 241.704 330.323 241.844 330.068 242.122C329.815 242.401 329.666 242.787 329.621 243.279H332.405C332.405 242.771 332.291 242.382 332.065 242.113C331.838 241.84 331.514 241.704 331.093 241.704ZM338.274 245.738H338.231C337.858 246.278 337.3 246.549 336.559 246.549C335.863 246.549 335.32 246.311 334.931 245.835C334.546 245.359 334.353 244.681 334.353 243.804C334.353 242.926 334.547 242.244 334.936 241.758C335.325 241.272 335.866 241.029 336.559 241.029C337.281 241.029 337.835 241.291 338.221 241.816H338.284L338.25 241.432L338.231 241.058V238.892H339.037V246.452H338.381L338.274 245.738ZM336.661 245.874C337.212 245.874 337.61 245.724 337.856 245.427C338.106 245.125 338.231 244.641 338.231 243.974V243.804C338.231 243.049 338.104 242.511 337.851 242.19C337.602 241.867 337.202 241.704 336.651 241.704C336.178 241.704 335.815 241.889 335.563 242.258C335.314 242.625 335.189 243.143 335.189 243.813C335.189 244.494 335.314 245.007 335.563 245.354C335.813 245.7 336.178 245.874 336.661 245.874ZM347.467 244.562C347.467 245.187 347.24 245.674 346.787 246.024C346.333 246.374 345.718 246.549 344.94 246.549C344.098 246.549 343.45 246.44 342.997 246.224V245.427C343.288 245.549 343.606 245.646 343.949 245.718C344.292 245.789 344.632 245.825 344.969 245.825C345.52 245.825 345.935 245.721 346.213 245.514C346.491 245.303 346.631 245.012 346.631 244.639C346.631 244.394 346.581 244.192 346.481 244.037C346.384 243.878 346.218 243.733 345.985 243.6C345.755 243.466 345.403 243.316 344.931 243.148C344.27 242.911 343.796 242.631 343.512 242.307C343.23 241.983 343.089 241.561 343.089 241.039C343.089 240.491 343.295 240.056 343.706 239.732C344.117 239.408 344.661 239.247 345.339 239.247C346.044 239.247 346.695 239.376 347.287 239.635L347.03 240.354C346.443 240.108 345.873 239.985 345.319 239.985C344.882 239.985 344.54 240.078 344.294 240.267C344.048 240.455 343.925 240.715 343.925 241.049C343.925 241.295 343.97 241.497 344.061 241.656C344.151 241.811 344.304 241.956 344.518 242.088C344.734 242.219 345.065 242.362 345.509 242.521C346.253 242.787 346.765 243.072 347.044 243.376C347.326 243.68 347.467 244.076 347.467 244.562ZM351.048 246.549C350.26 246.549 349.638 246.309 349.182 245.83C348.729 245.35 348.501 244.685 348.501 243.833C348.501 242.975 348.712 242.292 349.133 241.787C349.558 241.282 350.126 241.029 350.839 241.029C351.506 241.029 352.034 241.25 352.423 241.69C352.812 242.127 353.006 242.705 353.006 243.425V243.935H349.337C349.354 244.56 349.511 245.035 349.808 245.359C350.11 245.682 350.532 245.845 351.077 245.845C351.65 245.845 352.217 245.724 352.777 245.485V246.204C352.492 246.327 352.222 246.414 351.966 246.467C351.713 246.521 351.407 246.549 351.048 246.549ZM350.829 241.704C350.401 241.704 350.059 241.844 349.804 242.122C349.551 242.401 349.402 242.787 349.356 243.279H352.141C352.141 242.771 352.027 242.382 351.801 242.113C351.574 241.84 351.25 241.704 350.829 241.704ZM356.105 245.883C356.248 245.883 356.386 245.874 356.518 245.854C356.651 245.831 356.756 245.809 356.834 245.786V246.403C356.747 246.445 356.617 246.479 356.445 246.505C356.277 246.535 356.125 246.549 355.989 246.549C354.958 246.549 354.444 246.006 354.444 244.921V241.753H353.681V241.364L354.444 241.029L354.784 239.893H355.25V241.126H356.795V241.753H355.25V244.887C355.25 245.208 355.327 245.454 355.478 245.626C355.631 245.797 355.84 245.883 356.105 245.883ZM359.623 245.883C359.765 245.883 359.903 245.874 360.036 245.854C360.169 245.831 360.275 245.809 360.352 245.786V246.403C360.265 246.445 360.135 246.479 359.963 246.505C359.794 246.535 359.643 246.549 359.507 246.549C358.477 246.549 357.961 246.006 357.961 244.921V241.753H357.199V241.364L357.961 241.029L358.302 239.893H358.768V241.126H360.313V241.753H358.768V244.887C358.768 245.208 358.844 245.454 358.996 245.626C359.148 245.797 359.357 245.883 359.623 245.883ZM362.227 246.452H361.421V241.126H362.227V246.452ZM361.353 239.684C361.353 239.499 361.398 239.364 361.489 239.281C361.58 239.193 361.693 239.149 361.829 239.149C361.959 239.149 362.071 239.193 362.164 239.281C362.258 239.368 362.305 239.502 362.305 239.684C362.305 239.865 362.258 240.001 362.164 240.092C362.071 240.179 361.959 240.223 361.829 240.223C361.693 240.223 361.58 240.179 361.489 240.092C361.398 240.001 361.353 239.865 361.353 239.684ZM367.582 246.452V243.007C367.582 242.573 367.483 242.249 367.286 242.035C367.087 241.821 366.778 241.714 366.357 241.714C365.8 241.714 365.392 241.865 365.133 242.166C364.873 242.467 364.744 242.965 364.744 243.658V246.452H363.937V241.126H364.593L364.725 241.855H364.764C364.929 241.593 365.16 241.39 365.458 241.248C365.756 241.102 366.088 241.029 366.455 241.029C367.096 241.029 367.578 241.184 367.902 241.495C368.226 241.804 368.388 242.297 368.388 242.978V246.452H367.582ZM374.408 241.126V241.636L373.422 241.753C373.512 241.867 373.593 242.015 373.665 242.2C373.736 242.382 373.772 242.588 373.772 242.817C373.772 243.339 373.593 243.755 373.237 244.066C372.881 244.377 372.392 244.533 371.77 244.533C371.611 244.533 371.462 244.52 371.323 244.494C370.98 244.675 370.808 244.904 370.808 245.179C370.808 245.325 370.868 245.433 370.987 245.504C371.107 245.572 371.313 245.606 371.605 245.606H372.547C373.124 245.606 373.566 245.728 373.874 245.971C374.185 246.214 374.34 246.567 374.34 247.03C374.34 247.619 374.103 248.068 373.631 248.375C373.158 248.686 372.468 248.842 371.561 248.842C370.864 248.842 370.327 248.713 369.948 248.453C369.572 248.195 369.384 247.828 369.384 247.355C369.384 247.031 369.488 246.751 369.695 246.515C369.903 246.278 370.194 246.118 370.57 246.034C370.433 245.972 370.319 245.877 370.225 245.747C370.134 245.617 370.088 245.467 370.088 245.295C370.088 245.101 370.141 244.931 370.244 244.785C370.348 244.639 370.511 244.499 370.735 244.362C370.46 244.249 370.234 244.056 370.059 243.784C369.888 243.512 369.802 243.201 369.802 242.851C369.802 242.268 369.977 241.82 370.327 241.505C370.676 241.188 371.172 241.029 371.814 241.029C372.092 241.029 372.343 241.062 372.567 241.126H374.408ZM370.161 247.346C370.161 247.634 370.283 247.852 370.526 248.001C370.769 248.151 371.117 248.225 371.571 248.225C372.248 248.225 372.748 248.123 373.072 247.919C373.399 247.718 373.563 247.444 373.563 247.098C373.563 246.81 373.473 246.608 373.296 246.496C373.117 246.385 372.782 246.331 372.29 246.331H371.323C370.956 246.331 370.672 246.418 370.467 246.593C370.263 246.768 370.161 247.019 370.161 247.346ZM370.599 242.832C370.599 243.204 370.704 243.486 370.915 243.677C371.125 243.869 371.418 243.964 371.794 243.964C372.581 243.964 372.975 243.582 372.975 242.817C372.975 242.017 372.576 241.617 371.779 241.617C371.4 241.617 371.109 241.719 370.905 241.923C370.701 242.127 370.599 242.43 370.599 242.832ZM378.936 244.999C378.936 245.495 378.752 245.877 378.382 246.146C378.013 246.414 377.495 246.549 376.827 246.549C376.122 246.549 375.571 246.437 375.176 246.214V245.466C375.432 245.595 375.705 245.697 375.996 245.772C376.292 245.846 376.575 245.883 376.847 245.883C377.268 245.883 377.592 245.816 377.819 245.684C378.045 245.548 378.159 245.342 378.159 245.067C378.159 244.86 378.068 244.683 377.887 244.537C377.709 244.389 377.359 244.214 376.837 244.013C376.341 243.828 375.989 243.668 375.778 243.532C375.571 243.393 375.415 243.235 375.312 243.06C375.211 242.885 375.161 242.676 375.161 242.433C375.161 242 375.338 241.658 375.69 241.408C376.044 241.155 376.528 241.029 377.143 241.029C377.717 241.029 378.277 241.146 378.825 241.379L378.538 242.035C378.003 241.815 377.519 241.704 377.085 241.704C376.703 241.704 376.414 241.765 376.22 241.884C376.026 242.005 375.928 242.17 375.928 242.38C375.928 242.523 375.964 242.644 376.035 242.744C376.11 242.845 376.229 242.941 376.39 243.031C376.552 243.122 376.863 243.253 377.323 243.425C377.955 243.655 378.38 243.886 378.601 244.12C378.825 244.353 378.936 244.646 378.936 244.999Z" fill="#B5C4CF"/>
</g>
<defs>
<clipPath id="clip0">
<rect width="265.348" height="369" fill="white" transform="translate(124 69)"/>
</clipPath>
</defs>
</svg>
