<svg width="24" height="24" viewBox="0 0 24 24" fill="none" xmlns="http://www.w3.org/2000/svg">
    <path d="M13.559 0.112976C13.5251 0.106018 13.493 0.0999756 13.4601 0.0979614C12.98 0.0390015 12.4949 0 12 0C5.38293 0 0 5.38293 0 12C0 18.6171 5.38293 24 12 24C18.6171 24 24 18.6171 24 12C24 5.91302 19.4399 0.88092 13.559 0.112976ZM21.165 6.89099H10.7831L13.7999 1.66608C16.9651 2.21594 19.6479 4.18103 21.165 6.89099ZM14.083 15.605H9.91699L7.83398 11.998L9.91699 8.39099H14.083L16.166 11.998L14.083 15.605ZM12 1.5C12.054 1.5 12.106 1.50696 12.1589 1.50806L6.96899 10.498L3.94995 5.27106C5.87805 2.96906 8.77002 1.5 12 1.5ZM2.99908 6.62201L8.18591 15.605H2.15094C1.73694 14.4791 1.5 13.268 1.5 12C1.5 10.0331 2.05408 8.19708 2.99908 6.62201ZM2.83301 17.105H13.2169L10.1981 22.3339C7.03198 21.783 4.34894 19.817 2.83301 17.105ZM12 22.5C11.946 22.5 11.8931 22.493 11.8391 22.4919L17.031 13.498L20.051 18.728C18.123 21.0309 15.2311 22.5 12 22.5ZM21.002 17.376L15.8141 8.39099H21.847C22.262 9.51801 22.5 10.7311 22.5 12C22.5 13.966 21.947 15.8011 21.002 17.376Z" fill="#1E2834"/>
</svg>
