<svg width="32" height="32" viewBox="0 0 32 32" fill="none" xmlns="http://www.w3.org/2000/svg">
<path d="M22.7476 17.2639C20.989 17.2639 18.998 17.0559 17.0112 18.8601V16.7292C20.7471 16.7292 22.7112 13.8596 22.7112 11.2578V5.17432C22.7112 4.61548 22.2581 4.16309 21.7 4.16309C19.7 4.16309 17.8691 4.8999 16.4644 6.1167C15.032 4.89844 13.1777 4.16309 11.1548 4.16309C10.5959 4.16309 10.1436 4.61548 10.1436 5.17432V11.2578C10.1436 14.3792 12.946 16.7292 14.9888 16.7292V21.5828C12.9995 19.7761 10.998 19.9866 9.25244 19.9866C8.69434 19.9866 8.24121 20.4387 8.24121 20.9976C8.24121 24.0938 10.5037 27.1487 14.9888 27.1487V28.7598C14.9888 30.0974 17.0112 30.0957 17.0112 28.7598V24.4268C21.4846 24.4268 23.7588 21.3716 23.7588 18.2751C23.7588 17.7168 23.3057 17.2639 22.7476 17.2639ZM17.1365 22.4045C17.5781 20.655 19.0125 19.2861 21.6111 19.2861C21.1677 21.0398 19.7307 22.4045 17.1365 22.4045ZM10.3889 22.0088C12.9607 22.0088 14.4158 23.3518 14.8635 25.1265C12.2925 25.1265 10.8372 23.7825 10.3889 22.0088ZM12.1658 6.26758C13.2747 6.45093 14.2859 6.93018 15.1135 7.62183C14.2178 8.91479 13.6926 10.4827 13.6926 12.1707V14.1206C12.7725 13.4998 12.1658 12.4482 12.1658 11.2578V6.26758ZM20.689 6.271V11.2578C20.689 15.0908 16.7646 14.707 15.7148 14.707C15.7148 13.7637 15.7148 13.1021 15.7148 12.1707C15.7148 9.21826 17.866 6.75171 20.689 6.271Z" fill="#153C55"/>
<path d="M30.9885 0H24.6443C23.3086 0 23.3062 2.02222 24.6443 2.02222H29.9775V7.35547C29.9775 8.69116 31.9998 8.6936 31.9998 7.35547V1.01123C31.9998 0.452881 31.5469 0 30.9885 0Z" fill="#153C55"/>
<path d="M7.35547 29.9778C5.15869 29.9778 5.48511 29.9778 2.02222 29.9778C2.02222 24.365 2.02222 28.1726 2.02222 24.6445C2.02222 23.3088 0 23.3064 0 24.6445V30.9888C0 31.5471 0.452881 32 1.01123 32H7.35547C8.69116 32 8.6936 29.9778 7.35547 29.9778Z" fill="#153C55"/>
<path d="M2.02222 7.35547C2.02222 5.15869 2.02222 5.48511 2.02222 2.02222H7.35547C8.69116 2.02222 8.6936 0 7.35547 0H1.01123C0.452881 0 0 0.452881 0 1.01123V7.35547C0 8.69116 2.02222 8.6936 2.02222 7.35547Z" fill="#153C55"/>
<path d="M29.9775 24.6445V29.9778C24.3647 29.9778 28.1724 29.9778 24.6443 29.9778C23.3086 29.9778 23.3062 32 24.6443 32H30.9885C31.5469 32 31.9998 31.5471 31.9998 30.9888V24.6445C31.9998 23.3088 29.9775 23.3064 29.9775 24.6445Z" fill="#153C55"/>
</svg>
