<svg width="32" height="32" viewBox="0 0 32 32" fill="none" xmlns="http://www.w3.org/2000/svg">
<path d="M24.2758 15.4483C23.9713 15.4483 23.7241 15.6949 23.7241 16V19.3104C23.7241 23.5697 20.2593 27.0345 16 27.0345C11.7406 27.0345 8.27581 23.5697 8.27581 19.3104V16C8.27581 15.6949 8.02864 15.4483 7.72409 15.4483C7.41954 15.4483 7.17236 15.6949 7.17236 16V19.3104C7.17236 23.9918 10.838 27.8229 15.4482 28.1098V30.8966H12.6896C12.3851 30.8966 12.1379 31.1432 12.1379 31.4483C12.1379 31.7534 12.3851 32 12.6896 32H19.3103C19.6148 32 19.862 31.7534 19.862 31.4483C19.862 31.1432 19.6148 30.8966 19.3103 30.8966H16.5517V28.1098C21.1619 27.8229 24.8275 23.9912 24.8275 19.3104V16C24.8275 15.6949 24.5804 15.4483 24.2758 15.4483Z" fill="#153C55"/>
<path d="M16.0001 25.3793C19.3463 25.3793 22.0691 22.6566 22.0691 19.3103V6.06897C22.0691 2.72276 19.3463 0 16.0001 0C12.6539 0 9.93115 2.72276 9.93115 6.06897V19.3103C9.93115 22.6566 12.6539 25.3793 16.0001 25.3793ZM11.0346 6.06897C11.0346 3.33076 13.2625 1.10345 16.0001 1.10345C18.7378 1.10345 20.9656 3.33076 20.9656 6.06897V19.3103C20.9656 22.0486 18.7378 24.2759 16.0001 24.2759C13.2625 24.2759 11.0346 22.0486 11.0346 19.3103V6.06897Z" fill="#153C55"/>
</svg>
