<svg width="32" height="32" viewBox="0 0 32 32" fill="none" xmlns="http://www.w3.org/2000/svg">
<path d="M31.1702 5.58972H11.4482V4.80991C11.4482 3.66616 10.5177 2.73566 9.37394 2.73566H6.15519C5.01144 2.73566 4.08094 3.66616 4.08094 4.80991V5.58972H0.829687C0.371437 5.58972 0 5.96128 0 6.41947C0 6.87766 0.371437 7.24916 0.829687 7.24916H4.08081V8.02872C4.08081 9.17247 5.01131 10.103 6.15506 10.103H9.37387C10.5176 10.103 11.4481 9.17247 11.4481 8.02872V7.24916H31.1702C31.6284 7.24916 31.9999 6.87759 31.9999 6.41947C31.9999 5.96128 31.6284 5.58972 31.1702 5.58972ZM9.78881 8.02872C9.78881 8.25747 9.60269 8.44359 9.37394 8.44359H6.15513C5.92637 8.44359 5.74025 8.25747 5.74025 8.02872V4.80991C5.74025 4.58116 5.92637 4.39503 6.15513 4.39503H9.37394C9.60269 4.39503 9.78881 4.58116 9.78881 4.80991V8.02872Z" fill="#153C55"/>
<path d="M31.1703 14.8309H27.9191V14.0509C27.9191 12.9071 26.9886 11.9766 25.8449 11.9766H22.6261C21.4823 11.9766 20.5518 12.9071 20.5518 14.0509V14.8309H0.829687C0.371437 14.8309 0 15.2024 0 15.6606C0 16.1188 0.371437 16.4903 0.829687 16.4903H20.5518V17.2696C20.5518 18.4134 21.4823 19.3439 22.626 19.3439H25.8448C26.9886 19.3439 27.9191 18.4134 27.9191 17.2696V16.4903H31.1702C31.6285 16.4903 31.9999 16.1187 31.9999 15.6606C32 15.2024 31.6286 14.8309 31.1703 14.8309ZM26.2597 17.2697C26.2597 17.4984 26.0736 17.6846 25.8448 17.6846H22.626C22.3972 17.6846 22.2111 17.4984 22.2111 17.2697V14.0509C22.2111 13.8221 22.3972 13.636 22.626 13.636H25.8448C26.0736 13.636 26.2597 13.8221 26.2597 14.0509V17.2697Z" fill="#153C55"/>
<path d="M31.1703 24.7508H17.277V23.9713C17.277 22.8275 16.3465 21.897 15.2028 21.897H11.9839C10.8402 21.897 9.90969 22.8275 9.90969 23.9713V24.7508H0.829687C0.371437 24.7508 0 25.1224 0 25.5805C0 26.0387 0.371437 26.4102 0.829687 26.4102H9.90963V27.19C9.90963 28.3338 10.8401 29.2643 11.9839 29.2643H15.2027C16.3464 29.2643 17.2769 28.3338 17.2769 27.19V26.4102H31.1702C31.6285 26.4102 31.9999 26.0387 31.9999 25.5805C32 25.1223 31.6286 24.7508 31.1703 24.7508ZM15.6176 27.1901C15.6176 27.4188 15.4314 27.605 15.2027 27.605H11.9839C11.7551 27.605 11.569 27.4188 11.569 27.1901V23.9713C11.569 23.7425 11.7551 23.5564 11.9839 23.5564H15.2027C15.4314 23.5564 15.6176 23.7425 15.6176 23.9713V27.1901Z" fill="#153C55"/>
</svg>
