<svg width="32" height="32" viewBox="0 0 32 32" fill="none" xmlns="http://www.w3.org/2000/svg">
<path d="M0.628751 31.9067C0.976001 31.9067 1.2575 31.6252 1.2575 31.2779C1.2575 30.9307 0.976001 30.6492 0.628751 30.6492C0.281502 30.6492 0 30.9307 0 31.2779C0 31.6252 0.281502 31.9067 0.628751 31.9067Z" fill="#153C55"/>
<path d="M16.688 15.9593C17.0346 15.9593 17.3156 15.6783 17.3156 15.3318C17.3156 14.9852 17.0346 14.7043 16.688 14.7043C16.3415 14.7043 16.0605 14.9852 16.0605 15.3318C16.0605 15.6783 16.3415 15.9593 16.688 15.9593Z" fill="#153C55"/>
<path d="M24.9046 7.37698C24.4002 6.87248 23.7295 6.59473 23.0162 6.59473C22.3028 6.59473 21.632 6.8726 21.1277 7.37698C20.0864 8.41836 20.0864 10.1127 21.1277 11.1541C21.6484 11.6747 22.3322 11.935 23.0162 11.935C23.7 11.935 24.384 11.6746 24.9046 11.1541C25.946 10.1127 25.946 8.4183 24.9046 7.37698ZM24.0173 10.2666C23.4653 10.8186 22.567 10.8186 22.015 10.2666C21.463 9.71462 21.463 8.81636 22.015 8.2643C22.2825 7.99686 22.638 7.84961 23.0162 7.84961C23.3943 7.84961 23.7498 7.99686 24.0173 8.2643C24.5693 8.81636 24.5693 9.71462 24.0173 10.2666Z" fill="#153C55"/>
<path d="M7.83768 25.7157C7.52743 25.5612 7.1508 25.6875 6.9963 25.9977L6.24893 27.4986C5.92393 28.1512 5.2703 28.5876 4.54292 28.6373L3.67367 28.6968C3.52673 28.7067 3.43011 28.6335 3.38542 28.5888C3.34073 28.5441 3.26736 28.4473 3.27736 28.3005L3.33686 27.4313C3.38667 26.704 3.82305 26.0503 4.47555 25.7253L5.97643 24.9779C6.28668 24.8234 6.41293 24.4467 6.25843 24.1365C6.10399 23.8263 5.7273 23.7 5.41705 23.8545L3.91617 24.6019C2.86667 25.1245 2.16492 26.1758 2.08479 27.3455L2.02529 28.2147C1.99317 28.6839 2.16542 29.1437 2.49792 29.4762C2.80404 29.7823 3.21811 29.9527 3.64811 29.9527C3.68505 29.9527 3.72223 29.9514 3.75936 29.9488L4.62861 29.8893C5.79836 29.8093 6.84962 29.1076 7.37224 28.058L8.11962 26.5571C8.27412 26.2468 8.14787 25.8702 7.83768 25.7157Z" fill="#153C55"/>
<path d="M31.5668 0.511238C31.2724 0.221175 30.8667 0.069487 30.4547 0.0962996L29.8705 0.13355C24.6318 0.467988 19.7291 2.99668 16.4195 7.07131L15.0443 8.76438L11.4453 8.65869C11.4392 8.6585 11.433 8.65844 11.4269 8.65844C8.57269 8.65844 5.88925 9.76994 3.87093 11.7882L0.184796 15.4744C0.00948319 15.6497 -0.0462044 15.9119 0.0427958 16.1433C0.131796 16.3747 0.348671 16.5321 0.596297 16.5447L8.39906 16.9456L8.08094 17.3373C7.92062 17.5347 7.89525 17.8093 8.01681 18.0327C8.13906 18.2575 8.26719 18.4786 8.40081 18.6963L6.55043 20.893C6.39225 21.0808 6.35818 21.3437 6.46312 21.5657C6.86731 22.4197 7.40375 23.1871 8.05775 23.8465C8.72762 24.522 9.51094 25.0744 10.3858 25.4884C10.4713 25.5289 10.563 25.5487 10.6541 25.5487C10.7954 25.5487 10.9356 25.501 11.0496 25.4085C11.4482 25.0852 11.9078 24.7016 12.3523 24.3307C12.6691 24.0663 12.9932 23.7959 13.2961 23.5465C13.4769 23.6553 13.66 23.7608 13.8458 23.8619C13.9398 23.913 14.0429 23.9382 14.1456 23.9382C14.2822 23.9382 14.4179 23.8937 14.5303 23.8065L14.958 23.4746L15.3606 31.3102C15.3734 31.5579 15.5307 31.7747 15.7621 31.8637C15.8353 31.8919 15.9115 31.9056 15.9871 31.9056C16.1505 31.9056 16.311 31.8417 16.4309 31.7217L20.1171 28.0355C22.1354 26.0172 23.2468 23.3338 23.2468 20.4795V17.0423L24.701 15.9139C29.0591 12.532 31.7133 7.43238 31.983 1.92249L31.998 1.61712C32.0184 1.20436 31.8611 0.801364 31.5668 0.511238ZM2.07005 15.3639L4.75831 12.6756C6.53737 10.8966 8.90225 9.91582 11.4179 9.91338L14.0482 9.99063L9.37881 15.7394L2.07005 15.3639ZM11.5483 23.3672C11.2207 23.6404 10.8849 23.9207 10.5733 24.177C9.9705 23.8505 9.42525 23.4432 8.94875 22.9627C8.48725 22.4974 8.09444 21.9676 7.77769 21.384L9.13244 19.7757C9.54206 20.3252 9.99044 20.8458 10.4748 21.3335C10.4752 21.3338 10.4756 21.3342 10.4759 21.3345C10.4761 21.3347 10.4762 21.3348 10.4763 21.335C10.4765 21.3352 10.4767 21.3353 10.4769 21.3355C11.0139 21.876 11.5916 22.372 12.2044 22.8205C11.9881 23.0002 11.7664 23.1852 11.5483 23.3672ZM21.9921 20.4795C21.9921 22.9986 21.0112 25.3668 19.2298 27.1482L16.5416 29.8364L16.1665 22.5369L21.992 18.0163V20.4795H21.9921ZM30.7298 1.86118C30.478 7.00475 28.0002 11.7654 23.9318 14.9225L14.0906 22.5593C13.2744 22.0824 12.5138 21.5193 11.8176 20.8814L15.1355 17.5635C15.3805 17.3185 15.3805 16.9211 15.1355 16.6761C14.8904 16.431 14.4931 16.431 14.248 16.6761L10.9333 19.9908C10.3238 19.3162 9.78407 18.582 9.3245 17.7968L17.3936 7.8625C20.4832 4.05881 25.0599 1.69818 29.9504 1.38605L30.5346 1.3488C30.6112 1.34405 30.6624 1.38205 30.686 1.4053C30.7096 1.42849 30.7485 1.47893 30.7448 1.55587L30.7298 1.86118Z" fill="#153C55"/>
</svg>
